<svg id="svg" version="1.1" xmlns="http://www.w3.org/2000/svg" xmlns:xlink="http://www.w3.org/1999/xlink" width="400" height="400" viewBox="0, 0, 400,400"><g id="svgg"><path id="path0" d="M0.000 200.000 L 0.000 400.000 200.000 400.000 L 400.000 400.000 400.000 200.000 L 400.000 0.000 200.000 0.000 L 0.000 0.000 0.000 200.000 M207.200 61.984 C 207.970 62.236,209.410 62.606,210.400 62.806 C 215.498 63.839,217.984 64.545,220.302 65.618 C 221.707 66.268,223.058 66.800,223.305 66.800 C 223.551 66.800,224.965 67.520,226.447 68.400 C 227.928 69.280,229.233 70.000,229.346 70.000 C 231.152 70.000,243.577 80.714,246.465 84.762 C 247.186 85.773,247.917 86.780,248.090 87.000 C 249.834 89.227,254.400 97.185,254.400 97.997 C 254.400 98.217,255.030 99.761,255.800 101.428 C 256.570 103.095,257.200 104.886,257.200 105.409 C 257.200 105.931,257.629 107.763,258.153 109.479 C 259.381 113.503,259.918 115.680,260.355 118.400 C 260.549 119.610,261.268 122.439,261.954 124.687 C 262.639 126.935,263.201 129.365,263.202 130.087 C 263.204 130.809,263.761 133.110,264.440 135.200 C 265.119 137.290,265.821 140.243,265.998 141.762 C 266.182 143.332,266.554 144.670,266.860 144.862 C 269.140 146.288,281.925 153.724,282.400 153.900 C 282.730 154.022,283.270 154.344,283.600 154.616 C 283.930 154.888,285.100 155.590,286.200 156.177 C 287.300 156.763,288.470 157.402,288.800 157.595 C 289.130 157.789,290.570 158.623,292.000 159.447 C 293.430 160.272,295.721 161.634,297.090 162.473 C 298.460 163.313,299.683 164.000,299.809 164.000 C 299.935 164.000,301.023 164.630,302.227 165.400 C 303.431 166.170,304.492 166.800,304.586 166.800 C 304.680 166.800,306.792 167.992,309.278 169.448 C 311.765 170.905,314.790 172.648,316.000 173.321 C 317.210 173.994,319.820 175.529,321.800 176.731 C 323.780 177.933,326.570 179.546,328.000 180.317 C 329.430 181.087,334.200 183.818,338.600 186.384 C 343.000 188.951,347.614 191.626,348.853 192.328 C 352.631 194.470,352.569 193.883,349.817 201.400 C 348.541 204.887,348.207 205.831,345.367 214.000 C 343.952 218.070,342.634 221.760,342.438 222.200 C 342.243 222.640,341.602 224.530,341.013 226.400 C 340.424 228.270,339.787 230.160,339.597 230.600 C 338.257 233.703,337.697 235.154,337.437 236.200 C 337.273 236.860,336.898 237.940,336.604 238.600 C 336.311 239.260,335.769 240.790,335.400 242.000 C 334.719 244.235,332.986 249.144,332.363 250.600 C 331.896 251.694,330.841 254.702,330.330 256.398 C 330.098 257.167,329.659 258.152,329.354 258.587 C 329.049 259.022,328.800 259.655,328.800 259.994 C 328.800 260.333,327.334 264.568,325.543 269.405 C 323.752 274.242,321.708 279.820,321.002 281.800 C 320.295 283.780,319.421 286.069,319.059 286.887 C 318.696 287.705,318.400 288.554,318.400 288.773 C 318.400 289.283,316.027 292.000,315.582 292.000 C 315.397 292.000,314.111 292.692,312.723 293.538 C 309.760 295.344,303.316 299.126,300.922 300.463 C 299.999 300.978,297.798 302.255,296.031 303.300 C 294.264 304.345,292.718 305.200,292.596 305.200 C 292.473 305.200,290.624 306.249,288.487 307.530 C 286.349 308.812,281.660 311.557,278.066 313.630 C 274.473 315.704,271.229 317.580,270.858 317.800 C 270.487 318.020,269.287 318.733,268.192 319.385 C 267.096 320.037,265.169 321.117,263.909 321.785 C 262.649 322.453,258.869 324.602,255.509 326.559 C 252.149 328.517,248.860 330.388,248.200 330.718 C 247.540 331.047,246.730 331.535,246.400 331.802 C 246.070 332.069,244.630 332.921,243.200 333.696 C 241.770 334.471,239.700 335.663,238.600 336.345 C 237.500 337.027,236.167 337.775,235.637 338.007 C 235.108 338.238,233.884 338.962,232.917 339.614 C 231.951 340.266,231.061 340.800,230.939 340.800 C 230.818 340.800,228.405 342.163,225.578 343.828 C 221.826 346.038,220.134 346.822,219.318 346.728 L 218.200 346.600 218.263 343.600 C 218.343 339.798,219.004 328.033,220.017 312.400 C 220.451 305.690,220.805 299.111,220.803 297.780 C 220.802 296.449,220.975 295.185,221.189 294.971 C 221.404 294.756,221.750 289.444,221.962 283.096 C 222.174 276.779,222.466 271.417,222.612 271.181 C 223.268 270.119,221.875 268.357,219.444 267.175 C 218.100 266.521,215.920 265.272,214.600 264.400 C 213.280 263.527,211.210 262.326,210.000 261.732 C 208.790 261.138,206.317 259.695,204.504 258.526 C 202.691 257.357,201.122 256.400,201.018 256.400 C 200.840 256.400,193.709 252.422,192.400 251.593 C 192.070 251.384,190.152 250.303,188.137 249.192 C 186.122 248.080,184.255 246.907,183.988 246.585 C 183.721 246.263,183.349 246.000,183.163 246.000 C 182.976 246.000,181.504 245.235,179.891 244.300 C 178.278 243.365,176.101 242.150,175.053 241.600 C 174.005 241.050,172.807 240.285,172.390 239.900 C 171.974 239.515,171.456 239.200,171.238 239.200 C 171.021 239.200,169.723 238.525,168.354 237.700 C 163.105 234.537,159.583 232.660,156.512 231.388 C 155.583 231.004,154.520 230.354,154.150 229.945 C 153.779 229.535,153.225 229.200,152.919 229.200 C 152.612 229.200,151.377 228.570,150.173 227.800 C 148.969 227.030,147.830 226.400,147.641 226.400 C 147.452 226.400,147.074 226.130,146.800 225.800 C 146.526 225.470,146.006 225.200,145.644 225.200 C 145.282 225.200,144.151 224.525,143.130 223.700 C 141.289 222.211,137.919 220.179,136.000 219.401 C 135.450 219.178,134.280 218.581,133.400 218.074 C 132.520 217.568,130.781 216.579,129.536 215.877 C 128.291 215.175,126.268 214.015,125.042 213.300 C 123.816 212.585,122.686 212.000,122.532 212.000 C 122.378 212.000,121.880 211.655,121.426 211.233 C 120.053 209.958,112.400 205.683,112.400 206.191 C 112.400 206.282,113.075 207.466,113.900 208.821 C 114.725 210.176,115.648 211.760,115.952 212.342 C 116.255 212.924,116.827 213.760,117.222 214.200 C 117.617 214.640,118.418 215.956,119.003 217.123 C 119.587 218.291,120.591 219.845,121.233 220.576 C 121.875 221.307,122.400 222.119,122.400 222.379 C 122.400 222.640,122.849 223.442,123.398 224.162 C 123.947 224.882,124.605 226.085,124.860 226.836 C 125.490 228.694,130.330 236.328,131.672 237.580 C 132.042 237.925,133.521 238.811,134.959 239.549 C 144.773 244.582,152.015 257.451,152.100 270.009 C 152.163 279.284,140.806 284.983,134.052 279.066 C 133.694 278.752,132.979 278.366,132.465 278.209 C 131.148 277.807,125.906 272.493,124.209 269.840 C 122.447 267.087,120.800 264.013,120.800 263.479 C 120.800 263.258,120.243 261.898,119.562 260.456 C 118.881 259.015,118.135 256.837,117.905 255.618 C 117.382 252.846,116.673 251.171,115.619 250.217 C 115.168 249.809,114.800 249.291,114.800 249.064 C 114.800 248.622,113.647 246.299,112.259 243.943 C 109.993 240.099,105.945 233.653,105.010 232.400 C 104.436 231.630,103.435 230.280,102.788 229.400 C 102.140 228.520,101.427 227.583,101.205 227.317 C 100.982 227.051,100.800 226.584,100.800 226.279 C 100.800 225.974,100.432 225.391,99.981 224.983 C 99.189 224.266,98.641 223.235,97.593 220.487 C 97.318 219.765,96.577 218.526,95.946 217.732 C 95.316 216.939,94.800 216.135,94.800 215.946 C 94.800 215.757,94.170 214.725,93.400 213.653 C 92.630 212.581,92.000 211.540,92.000 211.339 C 92.000 211.138,90.911 209.449,89.579 207.587 C 86.273 202.962,82.355 197.014,81.023 194.600 C 80.417 193.500,79.711 192.330,79.456 192.000 C 78.719 191.048,77.600 188.916,77.600 188.463 C 77.600 186.714,72.893 182.000,71.146 182.000 C 70.795 182.000,70.079 181.685,69.554 181.300 C 69.029 180.915,67.880 180.244,67.000 179.810 C 64.953 178.799,62.239 177.088,62.067 176.700 C 61.993 176.535,61.736 176.400,61.494 176.400 C 60.737 176.400,52.791 171.532,52.434 170.849 C 51.959 169.940,52.606 168.464,53.689 167.990 C 54.190 167.771,55.320 167.139,56.200 166.587 C 57.080 166.034,58.250 165.369,58.800 165.108 C 59.350 164.847,60.748 164.041,61.908 163.317 C 63.067 162.593,64.104 162.000,64.212 162.000 C 64.320 162.000,66.001 161.015,67.947 159.811 L 71.486 157.622 71.739 155.511 C 71.879 154.350,71.995 152.513,71.997 151.428 C 72.000 149.415,72.214 148.561,73.860 143.992 C 74.377 142.557,74.800 140.988,74.800 140.505 C 74.800 139.561,75.768 137.219,76.829 135.600 C 77.189 135.050,77.606 134.092,77.756 133.472 C 78.025 132.363,79.216 130.357,82.669 125.200 C 86.529 119.435,93.202 112.939,98.970 109.329 C 101.451 107.777,109.564 103.021,111.921 101.737 C 112.868 101.222,114.305 100.350,115.114 99.800 C 115.924 99.250,116.720 98.800,116.885 98.800 C 117.050 98.800,118.178 98.164,119.393 97.387 C 120.608 96.610,121.917 95.857,122.301 95.714 C 122.685 95.571,123.875 94.857,124.945 94.127 C 126.015 93.397,127.108 92.800,127.374 92.800 C 127.641 92.800,128.745 92.170,129.828 91.400 C 130.911 90.630,131.978 89.999,132.199 89.999 C 132.419 89.998,133.680 89.279,135.000 88.400 C 136.320 87.521,137.554 86.802,137.742 86.801 C 137.930 86.801,138.911 86.242,139.922 85.560 C 140.932 84.878,142.128 84.155,142.580 83.954 C 143.031 83.753,143.940 83.237,144.600 82.807 C 145.260 82.377,146.395 81.755,147.123 81.423 C 147.851 81.092,148.962 80.454,149.592 80.006 C 150.222 79.557,151.696 78.674,152.868 78.042 C 155.873 76.423,158.000 75.174,159.924 73.900 C 160.837 73.295,161.789 72.800,162.038 72.800 C 162.288 72.800,163.327 72.193,164.346 71.451 C 165.366 70.708,166.650 69.964,167.200 69.796 C 167.750 69.628,168.937 68.985,169.839 68.368 C 170.740 67.751,172.000 67.118,172.639 66.961 C 173.277 66.804,175.075 66.074,176.634 65.338 C 178.193 64.602,179.887 64.000,180.399 64.000 C 180.911 64.000,182.246 63.746,183.365 63.435 C 186.957 62.438,189.351 61.882,191.400 61.568 C 194.221 61.137,205.521 61.434,207.200 61.984 M194.000 81.191 C 188.953 81.796,185.332 82.696,182.133 84.140 C 180.355 84.943,178.783 85.600,178.640 85.600 C 178.497 85.600,177.465 86.230,176.345 87.000 C 175.226 87.770,174.138 88.400,173.927 88.400 C 173.717 88.400,172.760 88.939,171.802 89.598 C 170.844 90.258,169.642 90.964,169.130 91.168 C 168.619 91.372,167.216 92.183,166.013 92.970 C 164.811 93.756,163.679 94.400,163.498 94.400 C 163.317 94.400,162.233 95.030,161.090 95.800 C 159.946 96.570,158.854 97.200,158.663 97.200 C 158.472 97.200,157.511 97.744,156.526 98.408 C 155.542 99.072,154.166 99.878,153.468 100.199 C 152.771 100.519,151.030 101.494,149.600 102.365 C 146.594 104.195,142.747 106.397,139.600 108.088 C 138.390 108.738,137.130 109.504,136.800 109.789 C 136.470 110.075,135.480 110.661,134.600 111.093 C 132.882 111.935,128.044 114.814,126.392 115.978 C 125.838 116.368,124.966 116.820,124.455 116.983 C 123.943 117.145,122.687 117.845,121.662 118.538 C 120.638 119.231,118.990 120.199,118.000 120.689 C 117.010 121.180,114.598 122.576,112.641 123.791 C 110.683 125.006,109.001 126.000,108.902 126.000 C 108.176 126.000,99.592 134.310,99.249 135.345 C 99.166 135.595,98.754 136.180,98.333 136.643 C 97.507 137.552,94.400 143.424,94.400 144.074 C 94.400 144.291,95.615 143.792,97.100 142.965 C 98.585 142.138,100.373 141.142,101.074 140.752 C 101.775 140.362,103.076 139.583,103.966 139.021 C 104.856 138.460,105.743 138.000,105.938 138.000 C 106.133 138.000,106.735 137.652,107.276 137.226 C 107.818 136.800,109.057 136.025,110.030 135.503 C 111.004 134.981,112.574 134.061,113.519 133.460 C 114.465 132.858,115.635 132.185,116.119 131.966 C 116.604 131.746,117.360 131.347,117.800 131.080 C 118.240 130.813,120.130 129.719,122.000 128.649 C 128.995 124.649,137.450 119.765,142.260 116.945 C 144.274 115.765,146.041 114.800,146.187 114.800 C 146.334 114.800,147.043 114.350,147.764 113.800 C 148.486 113.250,149.179 112.800,149.305 112.800 C 149.431 112.800,150.944 111.966,152.667 110.947 C 159.205 107.080,168.084 102.000,168.306 102.000 C 168.433 102.000,168.821 101.751,169.169 101.447 C 169.516 101.143,170.880 100.320,172.200 99.618 C 173.520 98.916,175.494 97.797,176.587 97.132 C 179.331 95.460,180.803 95.285,182.683 96.405 C 183.517 96.903,185.010 97.763,186.000 98.317 C 186.990 98.871,191.580 101.521,196.200 104.206 C 200.820 106.892,208.920 111.571,214.200 114.605 C 219.480 117.638,224.283 120.409,224.874 120.760 C 227.929 122.579,233.208 125.622,234.754 126.455 C 235.719 126.975,236.799 127.580,237.154 127.800 C 239.209 129.073,242.339 130.800,242.591 130.800 C 243.195 130.800,241.895 123.776,240.204 117.903 C 239.432 115.220,238.800 112.522,238.800 111.907 C 238.800 111.292,238.626 110.477,238.414 110.095 C 238.202 109.713,237.646 108.500,237.180 107.400 C 235.582 103.635,234.656 101.799,233.728 100.562 C 233.218 99.881,232.800 99.194,232.800 99.034 C 232.800 97.952,223.307 88.437,222.200 88.408 C 221.980 88.403,220.741 87.679,219.446 86.799 C 218.151 85.920,216.861 85.200,216.579 85.200 C 216.296 85.200,214.751 84.570,213.144 83.800 C 211.537 83.030,209.767 82.398,209.211 82.395 C 208.655 82.393,207.226 82.131,206.037 81.815 C 203.312 81.090,197.399 80.783,194.000 81.191 M192.212 121.180 C 191.695 122.017,191.865 124.979,192.501 126.209 C 193.586 128.307,195.028 129.395,202.093 133.449 C 205.881 135.622,209.344 137.617,209.790 137.883 C 210.235 138.148,211.019 138.554,211.530 138.784 C 212.042 139.015,213.302 139.787,214.330 140.501 C 215.359 141.215,216.920 142.125,217.800 142.524 C 218.680 142.923,219.760 143.575,220.200 143.972 C 220.640 144.370,221.450 144.801,222.000 144.930 C 222.550 145.060,224.260 146.012,225.800 147.047 C 230.932 150.495,233.149 148.886,230.493 143.641 C 229.344 141.372,227.986 140.343,221.600 136.903 C 220.170 136.133,218.730 135.285,218.400 135.018 C 218.070 134.752,216.810 134.034,215.600 133.422 C 214.390 132.811,213.130 132.082,212.800 131.802 C 212.470 131.522,211.420 130.867,210.466 130.347 C 208.239 129.131,207.023 128.444,204.800 127.144 C 201.994 125.503,199.941 124.363,198.200 123.481 C 197.320 123.035,196.231 122.342,195.781 121.941 C 194.741 121.016,192.596 120.559,192.212 121.180 M192.880 147.280 C 192.199 147.961,192.282 150.604,193.004 151.203 C 193.336 151.479,193.999 152.401,194.477 153.252 C 194.956 154.103,195.539 154.814,195.774 154.831 C 196.008 154.849,197.010 155.381,198.000 156.015 C 198.990 156.649,200.790 157.660,202.000 158.263 C 203.210 158.866,204.516 159.622,204.903 159.944 C 205.735 160.637,207.019 161.396,208.399 162.011 C 208.949 162.255,209.669 162.697,209.999 162.991 C 210.330 163.285,211.950 164.244,213.600 165.121 C 219.686 168.356,220.627 168.892,221.873 169.836 C 222.574 170.366,223.340 170.800,223.577 170.800 C 223.814 170.800,224.905 171.430,226.000 172.200 C 228.428 173.907,228.963 173.939,229.594 172.416 C 230.087 171.225,229.150 166.800,228.405 166.800 C 228.247 166.800,227.589 166.305,226.941 165.700 C 226.294 165.095,224.692 164.046,223.382 163.369 C 222.072 162.691,219.470 161.177,217.600 160.004 C 215.730 158.830,213.480 157.521,212.600 157.094 C 211.720 156.667,210.190 155.824,209.200 155.221 C 207.647 154.275,198.081 148.754,195.486 147.306 C 194.361 146.678,193.490 146.670,192.880 147.280 M241.500 149.831 C 239.961 151.380,242.373 156.985,245.137 158.286 C 245.942 158.664,247.204 159.381,247.943 159.878 C 248.682 160.376,250.302 161.261,251.543 161.845 C 252.784 162.429,253.890 163.024,254.000 163.167 C 254.269 163.516,258.626 166.125,261.400 167.599 C 262.060 167.950,263.410 168.763,264.400 169.407 C 265.390 170.050,267.028 170.981,268.040 171.475 C 269.052 171.969,270.100 172.638,270.368 172.961 C 270.636 173.284,271.383 173.664,272.028 173.806 C 272.672 173.948,273.200 174.229,273.200 174.432 C 273.200 174.634,273.377 174.800,273.592 174.800 C 273.808 174.800,274.969 175.430,276.173 176.200 C 278.481 177.677,279.531 177.909,280.320 177.120 C 280.941 176.499,280.941 173.901,280.320 173.280 C 280.056 173.016,279.651 172.215,279.420 171.500 C 278.925 169.967,275.592 167.661,268.616 164.026 C 266.864 163.113,264.884 161.958,264.216 161.460 C 263.547 160.962,262.010 160.049,260.800 159.432 C 259.590 158.815,258.316 158.061,257.969 157.755 C 257.621 157.450,257.207 157.200,257.048 157.200 C 256.889 157.200,253.937 155.562,250.487 153.560 C 244.565 150.123,242.190 149.137,241.500 149.831 M193.700 173.253 C 191.886 175.092,194.524 179.256,199.002 181.623 C 200.321 182.320,201.684 183.140,202.031 183.445 C 202.379 183.750,202.762 184.000,202.882 184.000 C 203.154 184.000,210.817 188.282,213.000 189.653 C 213.880 190.206,214.917 190.776,215.305 190.919 C 215.693 191.062,217.258 191.994,218.784 192.989 C 220.309 193.985,221.809 194.800,222.117 194.800 C 222.424 194.800,223.015 195.175,223.430 195.633 C 225.011 197.380,227.800 198.060,228.201 196.797 C 229.098 193.971,227.231 190.773,223.575 188.870 C 219.438 186.717,216.600 185.100,215.659 184.361 C 215.140 183.952,213.773 183.172,212.622 182.628 C 211.471 182.083,210.298 181.359,210.016 181.019 C 209.733 180.678,209.194 180.400,208.817 180.400 C 208.441 180.400,207.105 179.680,205.849 178.800 C 204.592 177.920,203.391 177.200,203.178 177.200 C 202.965 177.200,201.346 176.294,199.579 175.187 C 196.076 172.991,194.477 172.466,193.700 173.253 M239.821 173.977 C 237.674 176.349,241.428 182.013,246.570 184.162 C 249.198 185.260,256.843 189.847,257.133 190.500 C 257.207 190.665,257.539 190.800,257.872 190.800 C 258.204 190.800,258.981 191.159,259.597 191.598 C 260.213 192.036,262.040 193.091,263.658 193.942 C 265.276 194.792,268.460 196.593,270.733 197.944 C 275.427 200.734,275.339 200.709,276.177 199.511 C 277.432 197.720,275.892 193.771,273.460 192.543 C 272.767 192.193,271.840 191.581,271.400 191.183 C 270.960 190.785,269.610 189.967,268.400 189.365 C 267.190 188.764,265.660 187.871,265.000 187.382 C 264.340 186.893,263.350 186.360,262.800 186.198 C 262.250 186.036,260.990 185.333,260.000 184.636 C 259.010 183.939,257.226 182.864,256.037 182.247 C 254.847 181.631,252.464 180.243,250.741 179.163 C 249.018 178.083,247.525 177.200,247.423 177.200 C 247.320 177.200,245.708 176.320,243.839 175.245 C 240.661 173.416,240.402 173.334,239.821 173.977 M290.823 177.977 C 289.131 179.048,291.902 186.800,293.977 186.800 C 294.509 186.800,300.181 190.062,300.333 190.456 C 300.407 190.645,300.707 190.800,301.000 190.800 C 301.673 190.800,305.493 192.703,305.793 193.188 C 305.915 193.387,306.507 193.803,307.108 194.113 C 310.871 196.056,314.942 198.343,315.528 198.845 C 315.904 199.168,317.740 200.215,319.606 201.173 C 321.473 202.130,323.090 203.044,323.200 203.204 C 323.566 203.737,327.562 205.600,328.338 205.600 C 331.216 205.600,329.798 199.480,326.480 197.582 C 321.710 194.854,320.807 194.291,320.384 193.780 C 320.119 193.461,319.758 193.200,319.583 193.200 C 319.407 193.200,317.705 192.300,315.800 191.200 C 313.895 190.100,312.238 189.200,312.116 189.200 C 311.995 189.200,311.049 188.591,310.013 187.848 C 308.978 187.104,307.697 186.364,307.166 186.202 C 306.181 185.903,303.562 184.444,303.200 183.993 C 303.008 183.755,299.521 181.782,297.000 180.486 C 296.340 180.146,295.048 179.358,294.128 178.734 C 292.352 177.530,291.749 177.392,290.823 177.977 M237.700 198.265 C 236.320 198.822,237.755 203.413,239.796 204.970 C 241.445 206.227,244.745 208.000,245.437 208.000 C 245.722 208.000,246.190 208.332,246.477 208.737 C 246.765 209.143,247.720 209.807,248.600 210.214 C 249.480 210.621,250.740 211.351,251.400 211.837 C 252.060 212.322,253.500 213.160,254.600 213.697 C 257.458 215.095,259.195 216.153,259.197 216.500 C 259.199 216.665,259.402 216.800,259.648 216.800 C 260.087 216.800,265.934 220.002,268.891 221.862 C 272.398 224.068,273.794 222.345,271.858 218.200 C 271.029 216.425,270.591 216.024,267.962 214.636 C 266.333 213.775,264.298 212.605,263.440 212.036 C 262.582 211.466,261.682 210.893,261.440 210.763 C 261.198 210.633,260.640 210.313,260.200 210.053 C 259.760 209.793,258.493 209.154,257.384 208.632 C 256.275 208.111,255.128 207.395,254.835 207.042 C 254.542 206.689,254.139 206.400,253.940 206.400 C 253.505 206.400,246.613 202.362,245.200 201.279 C 244.650 200.857,243.788 200.383,243.285 200.224 C 242.782 200.066,241.612 199.503,240.685 198.973 C 238.974 197.995,238.593 197.905,237.700 198.265 M194.089 200.667 C 194.313 203.372,196.476 205.675,200.400 207.387 C 201.390 207.819,203.100 208.724,204.200 209.399 C 205.300 210.075,206.560 210.845,207.000 211.112 C 207.440 211.378,208.475 211.887,209.300 212.241 C 210.125 212.596,210.800 213.052,210.800 213.253 C 210.800 213.455,211.295 213.807,211.900 214.035 C 212.505 214.263,214.284 215.249,215.854 216.225 C 217.424 217.201,218.887 218.000,219.105 218.000 C 219.324 218.000,219.709 218.249,219.962 218.554 C 220.753 219.508,225.477 221.733,226.156 221.472 C 227.633 220.905,226.487 216.579,224.533 215.348 C 223.910 214.956,222.877 214.210,222.238 213.691 C 221.600 213.172,219.890 212.127,218.438 211.367 C 214.377 209.242,211.461 207.573,210.800 206.995 C 210.470 206.706,209.210 206.005,208.000 205.436 C 206.790 204.867,203.550 203.056,200.800 201.411 C 194.487 197.636,193.832 197.564,194.089 200.667 M286.267 200.667 C 284.878 202.055,287.029 207.911,289.178 208.593 C 289.630 208.736,290.000 208.987,290.000 209.150 C 290.000 209.313,290.765 209.783,291.700 210.194 C 292.635 210.606,294.345 211.546,295.501 212.284 C 296.657 213.022,297.917 213.742,298.301 213.885 C 299.003 214.145,302.026 216.005,302.400 216.407 C 302.510 216.525,303.410 216.966,304.400 217.386 C 305.390 217.806,306.521 218.419,306.913 218.749 C 307.649 219.367,308.077 219.218,312.266 216.878 C 313.842 215.998,313.100 214.991,309.393 212.982 C 308.949 212.741,307.298 211.792,305.723 210.872 C 304.149 209.952,302.744 209.200,302.602 209.200 C 302.460 209.200,301.515 208.630,300.502 207.933 C 299.489 207.235,297.670 206.137,296.460 205.491 C 295.250 204.846,294.009 204.066,293.702 203.759 C 293.394 203.451,292.961 203.200,292.739 203.200 C 292.516 203.200,291.260 202.570,289.946 201.800 C 287.565 200.405,286.773 200.161,286.267 200.667 M334.000 218.872 C 333.230 219.350,331.880 220.125,331.000 220.595 C 328.880 221.726,316.927 228.578,315.400 229.537 C 314.740 229.952,313.030 230.973,311.600 231.808 C 306.334 234.880,304.640 238.008,306.754 240.757 C 307.768 242.076,308.263 241.896,315.966 237.397 C 319.578 235.288,323.898 232.831,325.566 231.937 C 327.235 231.043,329.078 229.971,329.662 229.556 C 330.246 229.140,330.820 228.800,330.939 228.800 C 331.706 228.800,336.363 225.376,337.119 224.256 C 339.657 220.497,337.468 216.719,334.000 218.872 M235.601 224.100 C 235.604 226.995,236.985 228.757,240.677 230.578 C 241.819 231.141,242.855 231.766,242.979 231.966 C 243.103 232.167,244.058 232.741,245.102 233.242 C 246.146 233.744,247.900 234.726,249.000 235.424 C 250.100 236.123,251.543 236.813,252.206 236.958 C 252.870 237.104,253.997 237.768,254.711 238.436 C 255.425 239.103,256.783 239.991,257.729 240.410 C 258.676 240.829,259.781 241.537,260.187 241.985 C 260.592 242.433,261.234 242.800,261.613 242.800 C 261.992 242.800,262.526 243.070,262.800 243.400 C 263.446 244.179,264.210 244.157,266.294 243.300 C 269.995 241.779,268.213 239.819,258.283 234.492 C 256.942 233.772,255.565 232.956,255.222 232.679 C 254.880 232.402,253.790 231.749,252.800 231.228 C 251.810 230.707,250.730 230.075,250.400 229.824 C 250.070 229.572,248.945 228.957,247.901 228.456 C 246.857 227.955,245.777 227.325,245.501 227.057 C 245.225 226.788,243.830 225.967,242.400 225.231 C 240.970 224.496,239.322 223.558,238.738 223.147 C 236.773 221.764,235.600 222.121,235.601 224.100 M282.004 224.196 C 280.816 225.627,282.796 230.105,285.030 231.038 C 287.537 232.086,292.747 229.014,290.464 227.833 C 289.809 227.494,289.211 227.078,289.136 226.908 C 289.003 226.607,283.176 223.600,282.725 223.600 C 282.600 223.600,282.276 223.868,282.004 224.196 M325.400 239.630 C 323.420 240.752,320.810 242.216,319.600 242.885 C 316.559 244.563,316.028 244.875,314.200 246.046 C 313.320 246.610,311.174 247.833,309.431 248.764 C 303.089 252.152,301.412 253.714,300.973 256.644 C 300.530 259.596,302.372 260.838,304.868 259.271 C 306.684 258.131,315.669 252.966,318.200 251.607 C 319.520 250.899,320.870 250.106,321.200 249.847 C 321.530 249.587,322.610 248.948,323.600 248.426 C 324.590 247.905,325.627 247.302,325.905 247.086 C 326.182 246.871,326.989 246.403,327.697 246.047 C 330.275 244.751,331.895 240.843,330.683 238.839 C 329.766 237.323,329.366 237.383,325.400 239.630 M296.600 240.458 C 295.501 241.053,288.383 245.129,287.410 245.720 C 286.975 245.984,285.667 246.785,284.502 247.500 C 283.337 248.215,282.285 248.800,282.163 248.800 C 281.786 248.800,271.445 254.872,270.657 255.556 C 268.501 257.427,267.816 260.912,269.326 262.330 C 270.671 263.594,271.403 263.345,277.935 259.398 C 278.301 259.178,280.011 258.188,281.735 257.198 C 283.460 256.209,285.179 255.220,285.556 255.000 C 285.933 254.780,288.911 253.072,292.174 251.203 C 299.619 246.941,301.273 244.929,300.319 241.300 C 299.947 239.884,298.333 239.519,296.600 240.458 M319.800 258.615 C 318.920 259.154,317.931 259.722,317.601 259.878 C 316.979 260.173,309.451 264.534,308.400 265.209 C 307.767 265.615,304.742 267.303,301.400 269.116 C 296.147 271.964,293.615 277.020,296.870 278.159 C 297.942 278.534,303.200 276.340,303.200 275.518 C 303.200 275.343,303.383 275.200,303.606 275.200 C 303.949 275.200,305.604 274.300,309.126 272.197 C 309.497 271.976,312.298 270.367,315.351 268.622 C 321.681 265.005,323.335 263.625,323.932 261.461 C 324.881 258.025,322.943 256.690,319.800 258.615 M292.600 258.743 C 292.160 258.887,291.020 259.454,290.066 260.003 C 287.276 261.607,286.476 262.063,281.000 265.172 C 278.140 266.796,274.450 268.957,272.800 269.976 C 271.150 270.994,269.303 272.043,268.695 272.307 C 265.753 273.586,264.323 278.520,266.439 280.093 L 267.478 280.865 272.158 278.133 C 274.732 276.630,277.415 275.071,278.119 274.668 C 294.412 265.362,295.206 264.764,295.514 261.555 C 295.775 258.843,294.890 257.990,292.600 258.743 M258.594 262.447 C 257.717 262.913,255.955 263.903,254.679 264.647 C 253.402 265.391,252.280 266.000,252.186 266.000 C 252.092 266.000,251.067 266.606,249.908 267.346 C 248.748 268.086,246.650 269.301,245.243 270.046 C 243.837 270.791,242.397 271.580,242.043 271.800 C 241.690 272.020,239.749 273.151,237.730 274.313 C 231.651 277.813,229.220 281.696,231.675 283.984 C 232.870 285.097,233.912 285.010,236.112 283.615 C 237.140 282.963,238.751 282.013,239.691 281.503 C 240.631 280.994,243.583 279.277,246.252 277.688 C 248.921 276.100,251.224 274.800,251.371 274.800 C 251.600 274.800,253.865 273.465,256.623 271.704 C 257.051 271.431,258.030 270.863,258.800 270.441 C 261.587 268.913,263.200 266.498,263.200 263.854 C 263.200 261.465,261.449 260.930,258.594 262.447 M284.884 278.749 C 283.100 279.822,281.407 280.819,281.120 280.965 C 280.834 281.112,280.240 281.449,279.800 281.716 C 279.360 281.982,276.030 283.889,272.400 285.954 C 264.428 290.489,263.277 291.318,262.558 293.040 C 261.515 295.534,262.229 298.000,263.993 298.000 C 264.565 298.000,269.416 295.413,270.400 294.582 C 270.730 294.304,272.142 293.474,273.537 292.738 C 276.561 291.143,276.850 290.975,279.451 289.300 C 280.561 288.585,281.620 288.000,281.804 288.000 C 281.987 288.000,282.421 287.757,282.769 287.459 C 283.116 287.162,284.210 286.489,285.200 285.963 C 289.874 283.482,291.767 280.283,290.092 277.700 C 289.256 276.412,288.530 276.558,284.884 278.749 M311.200 279.426 C 309.550 280.400,307.750 281.417,307.200 281.685 C 306.650 281.952,305.513 282.593,304.674 283.107 C 303.017 284.123,301.883 284.782,296.991 287.571 C 292.329 290.228,291.427 290.965,290.601 292.797 C 288.996 296.358,291.401 297.931,295.119 295.751 C 296.154 295.145,297.360 294.454,297.800 294.217 C 298.531 293.822,302.461 291.524,312.228 285.782 C 316.214 283.438,317.387 281.857,317.130 279.167 C 316.929 277.058,315.074 277.139,311.200 279.426 M256.200 279.530 C 255.540 279.930,253.920 280.847,252.600 281.568 C 251.280 282.289,249.210 283.471,248.000 284.194 C 242.083 287.731,236.077 291.199,234.087 292.226 C 230.752 293.947,228.839 297.403,230.036 299.545 C 230.729 300.786,232.882 301.195,233.937 300.285 C 234.302 299.970,235.825 299.049,237.322 298.237 C 238.820 297.426,240.980 296.166,242.122 295.438 C 243.265 294.710,245.640 293.345,247.400 292.403 C 249.160 291.462,251.050 290.382,251.600 290.003 C 252.150 289.623,253.680 288.725,255.000 288.005 C 258.945 285.855,260.033 284.461,260.074 281.500 C 260.109 278.934,258.519 278.125,256.200 279.530 M282.175 296.165 C 281.501 296.458,279.462 297.621,277.643 298.749 C 275.825 299.877,274.277 300.800,274.203 300.800 C 273.855 300.800,268.183 304.202,268.067 304.481 C 267.993 304.657,267.723 304.808,267.467 304.818 C 264.757 304.921,258.800 310.291,258.800 312.631 C 258.800 316.182,260.582 315.865,268.800 310.851 C 269.790 310.247,271.410 309.319,272.400 308.789 C 273.390 308.259,274.470 307.615,274.800 307.357 C 275.130 307.100,276.347 306.400,277.503 305.801 C 278.660 305.202,279.706 304.552,279.827 304.356 C 279.948 304.160,280.371 304.000,280.767 304.000 C 281.992 304.000,285.137 300.903,285.650 299.191 C 286.494 296.375,284.893 294.981,282.175 296.165 M253.200 297.000 C 252.650 297.323,251.885 297.701,251.500 297.840 C 251.115 297.979,250.800 298.215,250.800 298.365 C 250.800 298.514,249.675 299.231,248.300 299.958 C 246.925 300.684,244.630 301.980,243.200 302.838 C 241.770 303.696,239.430 305.033,238.000 305.809 C 230.481 309.893,229.481 310.695,228.854 313.139 C 227.738 317.496,231.413 318.265,235.631 314.555 C 235.979 314.250,236.393 314.000,236.551 314.000 C 236.710 314.000,239.936 312.180,243.720 309.956 C 247.504 307.732,251.410 305.462,252.400 304.912 C 255.424 303.232,256.857 301.566,257.095 299.453 C 257.419 296.578,255.729 295.513,253.200 297.000 M248.800 315.420 C 247.150 316.399,244.810 317.739,243.600 318.397 C 242.390 319.055,240.680 320.044,239.800 320.594 C 238.920 321.144,237.952 321.714,237.649 321.860 C 229.774 325.648,226.206 329.300,227.532 332.211 C 228.428 334.178,229.387 333.807,240.600 327.161 C 242.800 325.857,245.050 324.574,245.600 324.310 C 248.094 323.111,251.898 320.571,252.889 319.441 C 254.382 317.741,254.514 314.231,253.100 313.852 C 251.885 313.526,252.163 313.425,248.800 315.420 " stroke="none" fill="#fafafa" fill-rule="evenodd"></path><path id="path1" d="M192.800 63.189 C 191.150 63.369,188.540 63.793,187.000 64.131 C 185.460 64.469,183.544 64.852,182.742 64.983 C 178.946 65.601,171.275 69.178,161.000 75.121 C 158.140 76.775,154.810 78.701,153.600 79.400 C 152.390 80.100,149.647 81.691,147.503 82.936 C 145.360 84.181,143.531 85.200,143.438 85.200 C 143.346 85.200,142.313 85.830,141.144 86.600 C 139.975 87.370,138.862 88.000,138.671 88.000 C 138.480 88.000,137.818 88.360,137.199 88.800 C 136.581 89.241,134.933 90.258,133.538 91.061 C 128.740 93.820,125.398 95.721,124.200 96.370 C 123.540 96.727,121.331 98.005,119.292 99.210 C 113.712 102.505,111.994 103.490,109.800 104.650 C 108.700 105.232,107.080 106.193,106.200 106.786 C 105.320 107.380,104.302 107.974,103.937 108.106 C 100.565 109.329,89.850 118.180,86.541 122.473 C 83.153 126.869,79.207 133.224,78.596 135.266 C 78.442 135.780,78.091 136.560,77.816 137.000 C 76.740 138.717,74.224 147.486,73.627 151.600 C 71.099 169.000,73.427 178.410,84.975 197.479 C 86.280 199.636,87.829 202.030,88.415 202.800 C 89.002 203.570,89.733 204.680,90.041 205.267 C 90.348 205.854,91.815 208.252,93.300 210.595 C 94.785 212.939,96.000 214.954,96.000 215.074 C 96.000 215.195,96.602 216.127,97.337 217.146 C 98.072 218.166,98.794 219.270,98.941 219.600 C 99.088 219.930,99.522 220.679,99.904 221.265 C 100.287 221.850,101.230 223.358,102.000 224.614 C 103.487 227.041,104.698 228.979,107.600 233.579 C 108.590 235.148,109.670 236.930,110.000 237.539 C 110.330 238.148,111.095 239.283,111.700 240.061 C 112.305 240.839,112.800 241.639,112.800 241.839 C 112.800 242.039,113.446 243.102,114.236 244.201 C 115.026 245.301,115.837 246.617,116.037 247.127 C 116.237 247.637,116.863 248.661,117.429 249.402 C 118.053 250.220,118.821 252.214,119.383 254.475 C 123.779 272.145,139.191 284.906,147.135 277.453 C 155.385 269.712,146.945 247.138,133.254 240.328 C 130.576 238.995,129.366 237.614,125.875 231.897 C 125.036 230.524,123.173 227.520,121.734 225.222 C 120.295 222.925,118.814 220.495,118.443 219.822 C 118.071 219.150,116.936 217.319,115.920 215.753 C 112.548 210.555,106.800 201.016,106.800 200.617 C 106.800 200.385,105.101 197.765,102.907 194.609 C 102.298 193.734,100.741 191.214,99.446 189.009 C 92.792 177.675,92.929 177.952,90.717 171.400 C 89.350 167.351,89.440 154.532,90.867 150.200 C 91.446 148.440,92.034 146.338,92.173 145.528 C 93.105 140.096,103.752 126.313,108.147 124.849 C 108.396 124.766,108.960 124.378,109.400 123.986 C 109.840 123.595,111.010 122.865,112.000 122.364 C 112.990 121.864,114.520 120.977,115.400 120.393 C 116.280 119.809,117.540 119.059,118.200 118.726 C 119.765 117.937,135.001 109.150,148.000 101.540 C 149.430 100.703,151.320 99.659,152.200 99.221 C 153.080 98.783,154.610 97.879,155.600 97.214 C 156.590 96.548,157.566 96.003,157.769 96.002 C 157.971 96.001,158.421 95.744,158.769 95.430 C 159.116 95.117,160.390 94.336,161.600 93.695 C 162.810 93.054,164.690 91.960,165.778 91.265 C 166.866 90.569,167.929 90.000,168.141 90.000 C 168.352 90.000,169.081 89.585,169.762 89.077 C 170.443 88.570,171.990 87.649,173.200 87.031 C 174.410 86.412,175.611 85.737,175.869 85.530 C 181.727 80.826,198.214 77.937,206.600 80.146 C 217.394 82.989,223.064 86.181,230.104 93.379 C 236.304 99.716,239.209 106.148,242.578 121.000 C 245.199 132.554,245.207 132.571,249.000 134.860 C 250.760 135.922,252.317 136.793,252.460 136.795 C 252.603 136.798,253.656 137.430,254.800 138.200 C 255.944 138.970,257.061 139.600,257.282 139.600 C 257.503 139.600,258.430 140.101,259.342 140.714 C 264.335 144.069,265.081 143.352,263.205 137.000 C 262.815 135.680,262.364 133.790,262.203 132.800 C 262.042 131.810,261.554 129.650,261.119 128.000 C 260.684 126.350,259.906 123.110,259.391 120.800 C 258.875 118.490,258.174 115.610,257.834 114.400 C 257.493 113.190,256.927 110.850,256.575 109.200 C 256.223 107.550,255.516 105.120,255.004 103.800 C 254.492 102.480,253.943 100.950,253.786 100.400 C 253.053 97.842,248.902 90.617,245.679 86.289 C 240.274 79.029,228.115 69.820,221.000 67.596 C 220.120 67.321,219.220 66.963,219.000 66.801 C 216.063 64.635,199.930 62.411,192.800 63.189 " stroke="none" fill="#f87610" fill-rule="evenodd"></path><path id="path2" d="M177.399 97.773 C 176.080 98.486,173.380 100.018,171.400 101.178 C 169.420 102.339,167.080 103.701,166.200 104.204 C 157.038 109.447,146.882 115.282,146.400 115.579 C 146.070 115.783,143.730 117.139,141.200 118.593 C 138.670 120.046,136.330 121.404,136.000 121.609 C 135.670 121.815,134.230 122.641,132.800 123.446 C 131.370 124.251,129.570 125.320,128.800 125.822 C 127.299 126.800,124.232 128.537,121.000 130.238 C 119.900 130.817,118.730 131.518,118.400 131.796 C 118.070 132.073,116.630 132.923,115.200 133.684 C 113.770 134.445,110.980 136.017,109.000 137.177 C 103.999 140.109,103.592 140.345,98.318 143.370 C 95.743 144.846,93.552 146.357,93.448 146.727 C 93.345 147.097,93.139 148.030,92.991 148.800 C 92.843 149.570,92.348 150.830,91.890 151.600 C 91.164 152.821,91.036 153.823,90.883 159.455 C 90.702 166.150,91.239 170.064,92.083 168.194 C 92.748 166.720,97.561 164.682,98.667 165.407 C 100.768 166.784,99.190 171.132,95.763 173.407 C 93.380 174.989,93.205 175.529,94.405 177.606 C 94.847 178.373,95.571 179.788,96.013 180.752 C 96.454 181.715,97.250 183.019,97.780 183.650 C 98.311 184.280,98.867 185.202,99.017 185.698 C 99.433 187.073,101.162 188.735,101.959 188.527 C 102.973 188.261,103.791 189.483,103.858 191.361 C 103.935 193.525,104.811 195.751,106.127 197.123 C 106.713 197.735,107.481 199.083,107.834 200.118 C 108.187 201.153,108.697 202.000,108.968 202.000 C 109.239 202.000,109.883 202.450,110.400 203.000 C 110.917 203.550,111.533 204.004,111.770 204.009 C 112.006 204.014,112.650 204.370,113.200 204.800 C 115.144 206.320,117.899 205.043,135.724 194.357 C 139.448 192.124,140.710 192.533,140.258 195.826 C 139.796 199.202,138.236 200.468,126.958 206.620 C 123.656 208.422,122.578 209.318,122.963 209.940 C 123.192 210.310,126.666 212.800,126.954 212.800 C 127.016 212.800,129.274 214.060,131.972 215.600 C 137.333 218.661,137.584 218.723,140.461 217.701 C 142.791 216.873,143.184 217.179,143.194 219.824 C 143.202 222.074,143.413 222.262,150.444 226.296 C 158.300 230.802,158.189 230.773,161.004 229.083 C 161.447 228.817,163.337 227.723,165.204 226.651 C 188.149 213.480,186.108 215.204,185.832 209.232 C 185.717 206.720,185.437 199.430,185.211 193.032 C 184.986 186.634,184.615 177.260,184.387 172.200 C 184.160 167.140,183.803 158.680,183.593 153.400 C 183.384 148.120,183.028 140.560,182.803 136.600 C 182.577 132.640,182.205 123.550,181.975 116.400 C 181.279 94.682,181.495 95.563,177.399 97.773 M169.520 124.880 C 171.562 126.922,168.562 131.869,163.747 134.400 C 160.504 136.104,149.488 142.443,147.739 143.611 C 143.144 146.680,140.987 145.992,141.790 141.712 C 142.041 140.373,144.873 136.800,145.683 136.800 C 145.893 136.800,147.014 136.170,148.174 135.400 C 149.334 134.630,150.448 134.000,150.651 134.000 C 150.853 134.000,152.004 133.349,153.209 132.553 C 154.414 131.757,155.670 130.992,156.000 130.853 C 156.849 130.495,161.827 127.591,165.169 125.504 C 167.046 124.332,168.730 124.090,169.520 124.880 M134.232 145.393 C 134.788 146.241,134.814 146.673,134.413 148.347 C 133.739 151.155,132.165 152.657,126.600 155.804 C 125.500 156.426,123.959 157.309,123.175 157.767 C 122.391 158.225,120.805 159.140,119.650 159.800 C 118.495 160.460,115.636 162.125,113.297 163.500 C 108.846 166.117,107.691 166.434,106.596 165.338 C 105.082 163.825,107.378 158.907,110.325 157.351 C 111.274 156.850,113.164 155.742,114.525 154.889 C 115.886 154.036,118.350 152.604,120.000 151.706 C 121.650 150.808,125.070 148.806,127.600 147.258 C 132.716 144.127,133.296 143.964,134.232 145.393 M170.711 149.823 C 171.877 150.640,171.840 151.956,170.582 154.362 C 169.180 157.044,168.931 157.217,157.400 163.542 C 156.740 163.904,156.110 164.294,156.000 164.408 C 155.890 164.523,155.350 164.834,154.800 165.099 C 154.250 165.365,153.080 166.032,152.200 166.582 C 147.054 169.799,145.288 170.259,144.408 168.614 C 142.962 165.912,145.683 162.583,152.400 158.836 C 155.150 157.302,157.940 155.726,158.600 155.332 C 159.260 154.939,160.649 154.146,161.686 153.569 C 162.724 152.992,163.804 152.332,164.086 152.102 C 166.452 150.176,169.646 149.077,170.711 149.823 M69.400 160.030 C 68.300 160.689,67.130 161.395,66.800 161.599 C 66.470 161.803,64.130 163.138,61.600 164.565 C 54.038 168.830,53.600 169.125,53.600 169.951 C 53.600 170.420,54.031 170.892,54.700 171.156 C 55.305 171.394,56.340 171.911,57.000 172.305 C 57.660 172.698,59.370 173.698,60.800 174.526 C 62.230 175.355,63.670 176.193,64.000 176.388 C 70.929 180.496,71.157 180.576,72.741 179.470 C 74.229 178.430,74.226 178.452,73.143 176.078 C 72.318 174.269,71.883 170.352,71.504 161.316 L 71.400 158.832 69.400 160.030 M137.229 169.655 C 137.856 170.826,137.433 173.009,136.226 174.833 C 135.261 176.291,133.591 177.420,127.400 180.802 C 126.080 181.523,124.550 182.416,124.000 182.786 C 123.450 183.155,121.920 184.054,120.600 184.783 C 119.280 185.512,118.110 186.219,118.000 186.354 C 117.890 186.489,116.396 187.320,114.680 188.200 L 111.561 189.800 110.780 188.856 C 109.049 186.760,112.745 180.000,115.622 180.000 C 115.791 180.000,117.970 178.765,120.465 177.256 C 122.959 175.746,126.440 173.744,128.200 172.805 C 129.960 171.867,131.646 170.903,131.947 170.662 C 134.090 168.947,136.595 168.469,137.229 169.655 M172.957 175.033 C 174.116 178.052,171.438 181.338,165.000 184.794 C 164.120 185.267,162.680 186.088,161.800 186.619 C 160.920 187.150,159.930 187.707,159.600 187.857 C 159.270 188.007,158.550 188.438,158.000 188.815 C 157.450 189.192,155.560 190.269,153.800 191.209 C 152.040 192.149,150.316 193.161,149.969 193.459 C 149.058 194.239,147.695 194.124,147.214 193.226 C 145.986 190.931,148.104 186.980,151.507 185.217 C 152.768 184.563,154.970 183.307,156.400 182.425 C 157.830 181.543,159.360 180.657,159.800 180.458 C 160.240 180.258,162.760 178.814,165.400 177.249 C 170.326 174.328,172.448 173.706,172.957 175.033 M174.171 199.429 C 175.330 200.587,173.964 205.102,172.112 206.236 C 171.020 206.904,167.647 208.799,165.200 210.117 C 163.990 210.769,162.522 211.639,161.938 212.051 C 161.354 212.463,160.738 212.800,160.570 212.800 C 160.401 212.800,159.979 213.050,159.631 213.355 C 159.284 213.661,158.100 214.398,157.000 214.993 C 155.900 215.588,154.280 216.505,153.400 217.031 C 149.680 219.253,147.836 216.727,150.428 212.959 C 151.620 211.226,152.651 210.425,156.400 208.314 C 161.387 205.505,167.297 202.075,169.800 200.534 C 172.917 198.617,173.270 198.527,174.171 199.429 " stroke="none" fill="#b7c5cb" fill-rule="evenodd"></path><path id="path3" d="M195.700 61.497 C 197.185 61.574,199.615 61.574,201.100 61.497 C 202.585 61.420,201.370 61.357,198.400 61.357 C 195.430 61.357,194.215 61.420,195.700 61.497 M207.400 62.400 C 207.840 62.589,208.470 62.744,208.800 62.744 C 209.178 62.744,209.104 62.617,208.600 62.400 C 208.160 62.211,207.530 62.056,207.200 62.056 C 206.822 62.056,206.896 62.183,207.400 62.400 M183.800 63.200 C 183.296 63.417,183.222 63.544,183.600 63.544 C 183.930 63.544,184.560 63.389,185.000 63.200 C 185.504 62.983,185.578 62.856,185.200 62.856 C 184.870 62.856,184.240 63.011,183.800 63.200 M225.200 67.964 C 225.750 68.414,226.380 68.783,226.600 68.785 C 227.028 68.788,226.305 68.234,225.000 67.560 C 224.469 67.285,224.536 67.421,225.200 67.964 M159.933 73.809 C 159.126 74.337,158.333 74.985,158.171 75.247 C 157.949 75.607,160.855 73.837,161.967 72.935 C 162.661 72.372,161.106 73.040,159.933 73.809 M234.800 73.738 C 234.800 73.830,235.475 74.410,236.300 75.026 C 237.528 75.945,237.656 75.983,237.004 75.237 C 236.246 74.369,234.800 73.386,234.800 73.738 M239.800 78.000 C 240.883 79.100,241.860 80.000,241.970 80.000 C 242.080 80.000,241.283 79.100,240.200 78.000 C 239.117 76.900,238.140 76.000,238.030 76.000 C 237.920 76.000,238.717 76.900,239.800 78.000 M193.900 81.082 C 194.395 81.178,195.205 81.178,195.700 81.082 C 196.195 80.987,195.790 80.909,194.800 80.909 C 193.810 80.909,193.405 80.987,193.900 81.082 M201.300 81.076 C 201.685 81.176,202.315 81.176,202.700 81.076 C 203.085 80.975,202.770 80.893,202.000 80.893 C 201.230 80.893,200.915 80.975,201.300 81.076 M141.144 84.824 L 140.200 85.647 141.400 84.945 C 142.979 84.020,143.003 84.000,142.511 84.000 C 142.279 84.000,141.664 84.371,141.144 84.824 M214.800 84.600 C 215.350 84.914,215.980 85.172,216.200 85.172 C 216.420 85.172,216.150 84.914,215.600 84.600 C 215.050 84.286,214.420 84.028,214.200 84.028 C 213.980 84.028,214.250 84.286,214.800 84.600 M226.800 92.125 C 226.800 92.194,227.385 92.779,228.100 93.425 L 229.400 94.600 228.225 93.300 C 227.130 92.088,226.800 91.816,226.800 92.125 M177.397 96.649 C 176.299 97.226,175.130 97.909,174.800 98.168 C 174.470 98.427,173.210 99.151,172.000 99.777 C 170.790 100.404,169.516 101.160,169.169 101.458 C 168.821 101.756,168.433 102.000,168.306 102.000 C 168.084 102.000,159.205 107.080,152.667 110.947 C 150.944 111.966,149.431 112.800,149.305 112.800 C 149.179 112.800,148.486 113.250,147.764 113.800 C 147.043 114.350,146.334 114.800,146.187 114.800 C 146.041 114.800,144.274 115.765,142.260 116.945 C 137.450 119.765,128.995 124.649,122.000 128.649 C 120.130 129.719,118.240 130.813,117.800 131.080 C 117.360 131.347,116.604 131.746,116.119 131.966 C 115.635 132.185,114.465 132.858,113.519 133.460 C 112.574 134.061,111.004 134.981,110.030 135.503 C 109.057 136.025,107.818 136.800,107.276 137.226 C 106.735 137.652,106.133 138.000,105.938 138.000 C 105.743 138.000,104.856 138.460,103.966 139.021 C 103.076 139.583,101.775 140.362,101.074 140.752 C 100.373 141.142,98.585 142.138,97.100 142.965 C 95.314 143.960,94.396 144.288,94.388 143.934 C 94.380 143.596,94.223 143.662,93.961 144.113 C 92.813 146.085,93.854 145.941,98.000 143.554 C 104.336 139.907,105.105 139.461,109.000 137.178 C 110.980 136.017,113.770 134.445,115.200 133.684 C 116.630 132.923,118.070 132.073,118.400 131.796 C 118.730 131.518,119.900 130.817,121.000 130.238 C 124.232 128.537,127.299 126.800,128.800 125.822 C 129.570 125.320,131.370 124.251,132.800 123.446 C 134.230 122.641,135.670 121.815,136.000 121.609 C 136.330 121.404,138.670 120.046,141.200 118.593 C 143.730 117.139,146.070 115.783,146.400 115.579 C 146.882 115.282,157.038 109.447,166.200 104.204 C 167.080 103.701,169.420 102.339,171.400 101.178 C 178.526 97.000,179.835 96.388,180.519 96.917 C 181.228 97.465,181.710 104.795,182.406 125.600 C 182.623 132.090,182.977 140.910,183.192 145.200 C 183.984 160.959,184.437 171.671,184.794 183.000 C 184.995 189.380,185.371 198.856,185.630 204.058 C 186.199 215.476,186.797 214.178,178.838 218.781 C 168.843 224.561,161.667 228.686,161.122 228.964 C 160.835 229.111,160.153 229.487,159.606 229.800 C 158.197 230.604,157.472 230.327,150.456 226.302 C 143.412 222.262,143.202 222.075,143.194 219.824 C 143.184 217.179,142.791 216.873,140.461 217.701 C 137.584 218.723,137.333 218.661,131.972 215.600 C 129.274 214.060,127.016 212.800,126.954 212.800 C 126.666 212.800,123.192 210.310,122.963 209.940 C 122.578 209.318,123.656 208.422,126.958 206.620 C 138.236 200.468,139.796 199.202,140.258 195.826 C 140.710 192.533,139.448 192.124,135.724 194.357 C 119.562 204.046,114.936 206.340,113.780 205.238 C 111.051 202.636,109.712 203.311,111.744 206.264 C 112.484 207.339,113.216 208.620,113.372 209.111 C 113.528 209.603,114.058 210.498,114.551 211.102 C 115.044 211.706,115.817 212.830,116.269 213.600 C 118.491 217.383,120.557 220.602,121.222 221.316 C 121.628 221.752,122.069 222.579,122.203 223.154 C 122.454 224.236,124.800 227.299,124.800 226.545 C 124.800 226.311,124.260 225.375,123.600 224.463 C 122.940 223.552,122.400 222.604,122.400 222.356 C 122.400 222.108,121.875 221.307,121.233 220.576 C 120.591 219.845,119.587 218.291,119.003 217.123 C 118.418 215.956,117.617 214.640,117.222 214.200 C 116.827 213.760,116.255 212.924,115.952 212.342 C 115.648 211.760,114.725 210.176,113.900 208.821 C 113.075 207.466,112.400 206.282,112.400 206.191 C 112.400 205.683,120.053 209.958,121.426 211.233 C 121.880 211.655,122.378 212.000,122.532 212.000 C 122.686 212.000,123.816 212.585,125.042 213.300 C 126.268 214.015,128.291 215.175,129.536 215.877 C 130.781 216.579,132.520 217.568,133.400 218.074 C 134.280 218.581,135.450 219.178,136.000 219.401 C 137.919 220.179,141.289 222.211,143.130 223.700 C 144.151 224.525,145.282 225.200,145.644 225.200 C 146.006 225.200,146.526 225.470,146.800 225.800 C 147.074 226.130,147.452 226.400,147.641 226.400 C 147.830 226.400,148.969 227.030,150.173 227.800 C 151.377 228.570,152.612 229.200,152.919 229.200 C 153.225 229.200,153.779 229.535,154.150 229.945 C 154.520 230.354,155.583 231.004,156.512 231.388 C 159.583 232.660,163.105 234.537,168.354 237.700 C 169.723 238.525,171.021 239.200,171.238 239.200 C 171.456 239.200,171.974 239.515,172.390 239.900 C 172.807 240.285,174.005 241.050,175.053 241.600 C 176.101 242.150,178.278 243.365,179.891 244.300 C 181.504 245.235,182.976 246.000,183.163 246.000 C 183.349 246.000,183.721 246.263,183.988 246.585 C 184.255 246.907,186.122 248.080,188.137 249.192 C 190.152 250.303,192.070 251.384,192.400 251.593 C 193.709 252.422,200.840 256.400,201.018 256.400 C 201.122 256.400,202.691 257.357,204.504 258.526 C 206.317 259.695,208.790 261.138,210.000 261.732 C 211.210 262.326,213.280 263.527,214.600 264.400 C 215.920 265.272,218.100 266.521,219.444 267.175 C 221.875 268.357,223.268 270.119,222.612 271.181 C 222.466 271.417,222.174 276.779,221.962 283.096 C 221.750 289.444,221.404 294.756,221.189 294.971 C 220.975 295.185,220.802 296.449,220.803 297.780 C 220.805 299.111,220.451 305.690,220.017 312.400 C 219.004 328.033,218.343 339.798,218.263 343.600 L 218.200 346.600 219.318 346.728 C 220.134 346.822,221.826 346.038,225.578 343.828 C 228.405 342.163,230.818 340.800,230.939 340.800 C 231.061 340.800,231.951 340.266,232.917 339.614 C 233.884 338.962,235.108 338.238,235.637 338.007 C 236.167 337.775,237.500 337.027,238.600 336.345 C 239.700 335.663,241.770 334.471,243.200 333.696 C 244.630 332.921,246.070 332.069,246.400 331.802 C 246.730 331.535,247.540 331.047,248.200 330.718 C 248.860 330.388,252.149 328.517,255.509 326.559 C 258.869 324.602,262.649 322.453,263.909 321.785 C 265.169 321.117,267.096 320.037,268.192 319.385 C 269.287 318.733,270.487 318.020,270.858 317.800 C 271.229 317.580,274.473 315.704,278.066 313.630 C 281.660 311.557,286.349 308.812,288.487 307.530 C 290.624 306.249,292.473 305.200,292.596 305.200 C 292.718 305.200,294.264 304.345,296.031 303.300 C 297.798 302.255,299.999 300.978,300.922 300.463 C 303.316 299.126,309.760 295.344,312.723 293.538 C 314.111 292.692,315.397 292.000,315.582 292.000 C 316.027 292.000,318.400 289.283,318.400 288.773 C 318.400 288.554,318.696 287.705,319.059 286.887 C 319.421 286.069,320.295 283.780,321.002 281.800 C 321.708 279.820,323.752 274.242,325.543 269.405 C 327.334 264.568,328.800 260.333,328.800 259.994 C 328.800 259.655,329.049 259.022,329.354 258.587 C 329.659 258.152,330.098 257.167,330.330 256.398 C 330.841 254.702,331.896 251.694,332.363 250.600 C 332.986 249.144,334.719 244.235,335.400 242.000 C 335.769 240.790,336.311 239.260,336.604 238.600 C 336.898 237.940,337.273 236.860,337.437 236.200 C 337.697 235.154,338.257 233.703,339.597 230.600 C 339.787 230.160,340.424 228.270,341.013 226.400 C 341.602 224.530,342.243 222.640,342.438 222.200 C 342.634 221.760,343.952 218.070,345.367 214.000 C 348.207 205.831,348.541 204.887,349.817 201.400 C 352.569 193.883,352.631 194.470,348.853 192.328 C 347.614 191.626,343.000 188.951,338.600 186.384 C 334.200 183.818,329.430 181.087,328.000 180.317 C 326.570 179.546,323.780 177.933,321.800 176.731 C 319.820 175.529,317.210 173.994,316.000 173.321 C 314.790 172.648,311.765 170.905,309.278 169.448 C 306.792 167.992,304.680 166.800,304.586 166.800 C 304.492 166.800,303.431 166.170,302.227 165.400 C 301.023 164.630,299.935 164.000,299.809 164.000 C 299.683 164.000,298.460 163.313,297.090 162.473 C 295.721 161.634,293.430 160.272,292.000 159.447 C 290.570 158.623,289.130 157.789,288.800 157.595 C 288.470 157.402,287.300 156.763,286.200 156.177 C 285.100 155.590,283.916 154.861,283.569 154.555 C 283.221 154.250,282.814 154.000,282.665 154.000 C 282.433 154.000,269.951 146.828,267.323 145.184 C 266.840 144.883,266.321 144.178,266.169 143.618 C 265.894 142.604,265.891 142.606,265.535 143.900 C 265.091 145.512,264.076 145.604,262.236 144.200 C 261.514 143.650,260.658 143.200,260.333 143.200 C 260.007 143.200,258.864 142.577,257.792 141.815 C 256.721 141.053,255.339 140.318,254.722 140.183 C 254.106 140.047,253.376 139.635,253.100 139.266 C 252.825 138.897,251.655 138.161,250.500 137.629 C 249.345 137.098,248.089 136.319,247.708 135.899 C 247.328 135.478,246.439 134.893,245.733 134.598 C 244.722 134.176,244.351 133.695,243.978 132.331 C 243.718 131.379,243.361 130.150,243.184 129.600 L 242.863 128.600 242.832 129.700 C 242.790 131.137,242.248 130.955,237.154 127.800 C 236.799 127.580,235.719 126.975,234.754 126.455 C 233.205 125.621,227.897 122.561,224.874 120.760 C 224.283 120.408,218.940 117.325,213.000 113.910 C 207.060 110.494,198.450 105.517,193.866 102.850 C 189.282 100.182,185.463 98.000,185.380 98.000 C 185.296 98.000,184.376 97.460,183.336 96.800 C 181.015 95.328,179.962 95.301,177.397 96.649 M258.061 110.000 C 258.061 110.330,258.303 111.230,258.600 112.000 C 258.897 112.770,259.139 113.130,259.139 112.800 C 259.139 112.470,258.897 111.570,258.600 110.800 C 258.303 110.030,258.061 109.670,258.061 110.000 M96.522 111.029 L 95.400 112.058 96.700 111.154 C 97.415 110.657,98.000 110.193,98.000 110.125 C 98.000 109.809,97.558 110.080,96.522 111.029 M91.000 115.476 C 89.900 116.487,89.540 116.947,90.200 116.497 C 91.324 115.730,93.544 113.578,93.170 113.618 C 93.076 113.628,92.100 114.464,91.000 115.476 M240.056 117.200 C 240.056 117.530,240.211 118.160,240.400 118.600 C 240.617 119.104,240.744 119.178,240.744 118.800 C 240.744 118.470,240.589 117.840,240.400 117.400 C 240.183 116.896,240.056 116.822,240.056 117.200 M121.118 118.503 C 120.082 119.199,119.296 119.829,119.370 119.903 C 119.525 120.058,123.200 117.630,123.200 117.372 C 123.200 117.111,123.138 117.145,121.118 118.503 M87.381 119.300 L 85.800 121.000 87.500 119.419 C 89.081 117.948,89.384 117.600,89.081 117.600 C 89.016 117.600,88.251 118.365,87.381 119.300 M195.781 121.941 C 196.231 122.342,197.320 123.035,198.200 123.481 C 199.941 124.363,201.994 125.503,204.800 127.144 C 207.023 128.444,208.239 129.131,210.466 130.347 C 211.420 130.867,212.470 131.522,212.800 131.802 C 213.130 132.082,214.390 132.811,215.600 133.422 C 216.810 134.034,218.070 134.752,218.400 135.018 C 218.730 135.285,220.170 136.133,221.600 136.903 C 227.986 140.343,229.344 141.372,230.493 143.641 C 233.149 148.886,230.932 150.495,225.800 147.047 C 224.260 146.012,222.550 145.060,222.000 144.930 C 221.450 144.801,220.640 144.370,220.200 143.972 C 219.760 143.575,218.680 142.923,217.800 142.524 C 216.920 142.125,215.359 141.215,214.330 140.501 C 213.302 139.787,212.042 139.015,211.530 138.784 C 211.019 138.554,210.235 138.148,209.790 137.883 C 209.344 137.617,205.881 135.622,202.093 133.449 C 193.271 128.387,191.847 126.971,191.902 123.321 C 191.943 120.584,193.595 119.996,195.781 121.941 M111.900 123.829 C 109.832 125.183,110.003 125.458,112.100 124.151 C 114.117 122.895,114.245 122.793,113.767 122.824 C 113.565 122.836,112.725 123.289,111.900 123.829 M82.799 124.900 C 82.210 125.704,82.113 125.984,82.545 125.633 C 83.201 125.100,84.193 123.600,83.889 123.600 C 83.813 123.600,83.322 124.185,82.799 124.900 M165.169 125.504 C 161.827 127.591,156.849 130.495,156.000 130.853 C 155.670 130.992,154.414 131.757,153.209 132.553 C 152.004 133.349,150.853 134.000,150.651 134.000 C 150.448 134.000,149.334 134.630,148.174 135.400 C 147.014 136.170,145.893 136.800,145.683 136.800 C 144.873 136.800,142.041 140.373,141.790 141.712 C 140.987 145.992,143.144 146.680,147.739 143.611 C 149.488 142.443,160.504 136.104,163.747 134.400 C 166.581 132.911,168.415 131.252,169.243 129.428 C 171.234 125.045,169.138 123.026,165.169 125.504 M106.975 127.300 L 105.800 128.600 107.100 127.425 C 107.815 126.779,108.400 126.194,108.400 126.125 C 108.400 125.816,108.070 126.088,106.975 127.300 M264.412 136.400 C 264.412 136.730,264.587 137.270,264.800 137.600 C 265.145 138.133,265.188 138.133,265.188 137.600 C 265.188 137.270,265.013 136.730,264.800 136.400 C 264.455 135.867,264.412 135.867,264.412 136.400 M127.600 147.258 C 125.070 148.806,121.650 150.808,120.000 151.706 C 118.350 152.604,115.886 154.036,114.525 154.889 C 113.164 155.742,111.274 156.850,110.325 157.351 C 107.378 158.907,105.082 163.825,106.596 165.338 C 107.691 166.434,108.846 166.117,113.297 163.500 C 115.636 162.125,118.495 160.460,119.650 159.800 C 120.805 159.140,122.391 158.225,123.175 157.767 C 123.959 157.309,125.500 156.426,126.600 155.804 C 132.165 152.657,133.739 151.155,134.413 148.347 C 135.515 143.754,133.780 143.476,127.600 147.258 M195.486 147.306 C 198.081 148.754,207.647 154.275,209.200 155.221 C 210.190 155.824,211.720 156.667,212.600 157.094 C 213.480 157.521,215.730 158.830,217.600 160.004 C 219.470 161.177,222.072 162.691,223.382 163.369 C 224.692 164.046,226.294 165.095,226.941 165.700 C 227.589 166.305,228.247 166.800,228.405 166.800 C 229.150 166.800,230.087 171.225,229.594 172.416 C 228.963 173.939,228.428 173.907,226.000 172.200 C 224.905 171.430,223.814 170.800,223.577 170.800 C 223.340 170.800,222.574 170.366,221.873 169.836 C 220.627 168.892,219.686 168.356,213.600 165.121 C 211.950 164.244,210.330 163.285,209.999 162.991 C 209.669 162.697,208.949 162.255,208.399 162.011 C 207.019 161.396,205.735 160.637,204.903 159.944 C 204.516 159.622,203.210 158.866,202.000 158.263 C 200.790 157.660,198.990 156.649,198.000 156.015 C 197.010 155.381,196.008 154.849,195.774 154.831 C 195.539 154.814,194.956 154.103,194.477 153.252 C 193.999 152.401,193.336 151.479,193.004 151.203 C 190.865 149.428,193.074 145.960,195.486 147.306 M72.249 148.615 C 72.112 148.973,72.018 149.656,72.041 150.133 C 72.067 150.681,72.203 150.486,72.410 149.603 C 72.760 148.116,72.665 147.533,72.249 148.615 M167.000 150.451 C 165.680 151.129,164.369 151.872,164.086 152.102 C 163.804 152.332,162.724 152.992,161.686 153.569 C 160.649 154.146,159.260 154.939,158.600 155.332 C 157.940 155.726,155.150 157.302,152.400 158.836 C 145.683 162.583,142.962 165.912,144.408 168.614 C 145.288 170.259,147.054 169.799,152.200 166.582 C 153.080 166.032,154.250 165.365,154.800 165.099 C 155.350 164.834,155.890 164.523,156.000 164.408 C 156.110 164.294,156.740 163.904,157.400 163.542 C 168.931 157.217,169.180 157.044,170.582 154.362 C 171.840 151.956,171.877 150.640,170.711 149.823 C 169.590 149.038,169.826 148.998,167.000 150.451 M250.487 153.560 C 253.937 155.562,256.889 157.200,257.048 157.200 C 257.207 157.200,257.621 157.450,257.969 157.755 C 258.316 158.061,259.590 158.815,260.800 159.432 C 262.010 160.049,263.547 160.962,264.216 161.460 C 264.884 161.958,266.864 163.113,268.616 164.026 C 275.592 167.661,278.925 169.967,279.420 171.500 C 279.651 172.215,280.056 173.016,280.320 173.280 C 280.941 173.901,280.941 176.499,280.320 177.120 C 279.531 177.909,278.481 177.677,276.173 176.200 C 274.969 175.430,273.808 174.800,273.592 174.800 C 273.377 174.800,273.200 174.634,273.200 174.432 C 273.200 174.229,272.672 173.948,272.028 173.806 C 271.383 173.664,270.636 173.284,270.368 172.961 C 270.100 172.638,269.052 171.969,268.040 171.475 C 267.028 170.981,265.390 170.050,264.400 169.407 C 263.410 168.763,262.060 167.950,261.400 167.599 C 258.626 166.125,254.269 163.516,254.000 163.167 C 253.890 163.024,252.784 162.429,251.543 161.845 C 250.302 161.261,248.682 160.376,247.943 159.878 C 247.204 159.381,245.942 158.664,245.137 158.286 C 243.021 157.290,241.200 154.382,241.200 151.998 C 241.200 148.589,242.217 148.760,250.487 153.560 M71.646 156.076 C 71.605 157.381,65.809 162.000,64.212 162.000 C 64.104 162.000,63.067 162.593,61.908 163.317 C 60.748 164.041,59.350 164.847,58.800 165.108 C 58.250 165.369,57.080 166.034,56.200 166.587 C 55.320 167.139,54.190 167.771,53.689 167.990 C 52.606 168.464,51.959 169.940,52.434 170.849 C 52.791 171.532,60.737 176.400,61.494 176.400 C 61.736 176.400,61.993 176.535,62.067 176.700 C 62.239 177.088,64.953 178.799,67.000 179.810 C 67.880 180.244,69.029 180.915,69.554 181.300 C 70.079 181.685,70.795 182.000,71.146 182.000 C 72.862 182.000,77.600 186.707,77.600 188.412 C 77.600 188.933,79.069 191.624,79.995 192.800 C 81.285 194.439,80.905 193.146,79.464 190.995 C 78.728 189.898,78.004 188.502,77.854 187.893 C 77.704 187.284,76.979 185.844,76.243 184.693 C 75.506 183.542,74.775 181.836,74.617 180.902 C 74.260 178.790,73.868 178.531,72.568 179.554 C 71.243 180.596,70.856 180.453,64.000 176.388 C 63.670 176.193,62.230 175.355,60.800 174.526 C 59.370 173.698,57.660 172.698,57.000 172.305 C 56.340 171.911,55.305 171.394,54.700 171.156 C 54.031 170.892,53.600 170.420,53.600 169.951 C 53.600 169.125,53.975 168.873,61.731 164.480 C 64.334 163.006,66.767 161.620,67.140 161.400 C 67.512 161.180,68.660 160.502,69.691 159.893 C 71.610 158.760,72.362 157.198,71.883 155.340 C 71.779 154.933,71.672 155.264,71.646 156.076 M94.891 166.139 C 92.021 167.582,91.694 168.234,92.582 170.750 C 92.922 171.713,93.200 172.917,93.200 173.427 C 93.200 174.847,93.637 174.840,95.803 173.384 C 99.131 171.145,100.710 166.823,98.711 165.423 C 97.632 164.667,97.931 164.610,94.891 166.139 M133.947 169.545 C 133.147 169.919,132.247 170.421,131.947 170.662 C 131.646 170.903,129.960 171.867,128.200 172.805 C 126.440 173.744,122.959 175.746,120.465 177.256 C 117.970 178.765,115.791 180.000,115.622 180.000 C 112.745 180.000,109.049 186.760,110.780 188.856 L 111.561 189.800 114.680 188.200 C 116.396 187.320,117.890 186.489,118.000 186.354 C 118.110 186.219,119.280 185.512,120.600 184.783 C 121.920 184.054,123.450 183.155,124.000 182.786 C 124.550 182.416,126.080 181.523,127.400 180.802 C 135.453 176.403,136.944 175.085,137.459 171.911 C 137.915 169.101,136.677 168.267,133.947 169.545 M199.579 175.187 C 201.346 176.294,202.965 177.200,203.178 177.200 C 203.391 177.200,204.592 177.920,205.849 178.800 C 207.105 179.680,208.441 180.400,208.817 180.400 C 209.194 180.400,209.733 180.678,210.016 181.019 C 210.298 181.359,211.471 182.083,212.622 182.628 C 213.773 183.172,215.140 183.952,215.659 184.361 C 216.600 185.100,219.438 186.717,223.575 188.870 C 227.231 190.773,229.098 193.971,228.201 196.797 C 227.800 198.060,225.011 197.380,223.430 195.633 C 223.015 195.175,222.424 194.800,222.117 194.800 C 221.809 194.800,220.309 193.985,218.784 192.989 C 217.258 191.994,215.693 191.062,215.305 190.919 C 214.917 190.776,213.880 190.206,213.000 189.653 C 210.817 188.282,203.154 184.000,202.882 184.000 C 202.762 184.000,202.379 183.750,202.031 183.445 C 201.684 183.140,200.321 182.320,199.002 181.623 C 195.319 179.676,193.236 177.144,193.209 174.580 C 193.183 172.199,195.104 172.382,199.579 175.187 M247.423 177.200 C 247.525 177.200,249.018 178.083,250.741 179.163 C 252.464 180.243,254.847 181.631,256.037 182.247 C 257.226 182.864,259.010 183.939,260.000 184.636 C 260.990 185.333,262.250 186.036,262.800 186.198 C 263.350 186.360,264.340 186.893,265.000 187.382 C 265.660 187.871,267.190 188.764,268.400 189.365 C 269.610 189.967,270.960 190.785,271.400 191.183 C 271.840 191.581,272.767 192.193,273.460 192.543 C 275.892 193.771,277.432 197.720,276.177 199.511 C 275.339 200.709,275.427 200.734,270.733 197.944 C 268.460 196.593,265.276 194.792,263.658 193.942 C 262.040 193.091,260.213 192.036,259.597 191.598 C 258.981 191.159,258.204 190.800,257.872 190.800 C 257.539 190.800,257.207 190.665,257.133 190.500 C 256.843 189.847,249.198 185.260,246.570 184.162 C 241.428 182.013,237.674 176.349,239.821 173.977 C 240.402 173.334,240.661 173.416,243.839 175.245 C 245.708 176.320,247.320 177.200,247.423 177.200 M165.400 177.249 C 162.760 178.814,160.240 180.258,159.800 180.458 C 159.360 180.657,157.830 181.543,156.400 182.425 C 154.970 183.307,152.768 184.563,151.507 185.217 C 148.104 186.980,145.986 190.931,147.214 193.226 C 147.695 194.124,149.058 194.239,149.969 193.459 C 150.316 193.161,152.040 192.149,153.800 191.209 C 155.560 190.269,157.450 189.192,158.000 188.815 C 158.550 188.438,159.270 188.007,159.600 187.857 C 159.930 187.707,160.920 187.150,161.800 186.619 C 162.680 186.088,164.120 185.267,165.000 184.794 C 170.456 181.865,173.200 179.086,173.200 176.489 C 173.200 173.488,171.457 173.658,165.400 177.249 M294.128 178.734 C 295.048 179.358,296.340 180.146,297.000 180.486 C 299.521 181.782,303.008 183.755,303.200 183.993 C 303.562 184.444,306.181 185.903,307.166 186.202 C 307.697 186.364,308.978 187.104,310.013 187.848 C 311.049 188.591,311.995 189.200,312.116 189.200 C 312.238 189.200,313.895 190.100,315.800 191.200 C 317.705 192.300,319.407 193.200,319.583 193.200 C 319.758 193.200,320.119 193.461,320.384 193.780 C 320.807 194.291,321.710 194.854,326.480 197.582 C 329.798 199.480,331.216 205.600,328.338 205.600 C 327.562 205.600,323.566 203.737,323.200 203.204 C 323.090 203.044,321.473 202.130,319.606 201.173 C 317.740 200.215,315.904 199.168,315.528 198.845 C 314.942 198.343,310.871 196.056,307.108 194.113 C 306.507 193.803,305.915 193.387,305.793 193.188 C 305.493 192.703,301.673 190.800,301.000 190.800 C 300.707 190.800,300.407 190.645,300.333 190.456 C 300.181 190.062,294.509 186.800,293.977 186.800 C 292.858 186.800,290.246 182.272,290.246 180.333 C 290.246 177.335,291.378 176.869,294.128 178.734 M101.774 189.460 C 101.928 190.087,102.342 191.044,102.693 191.586 L 103.331 192.572 103.745 191.646 C 104.248 190.519,103.376 188.683,102.233 188.463 C 101.605 188.342,101.536 188.492,101.774 189.460 M80.800 194.162 C 80.800 194.306,81.898 196.173,83.240 198.311 C 86.396 203.341,90.830 209.359,88.957 206.071 C 88.541 205.340,87.874 204.391,87.476 203.962 C 87.077 203.532,86.503 202.586,86.199 201.859 C 85.895 201.131,85.351 200.291,84.990 199.992 C 84.630 199.693,83.824 198.436,83.200 197.200 C 82.197 195.213,80.800 193.445,80.800 194.162 M240.685 198.973 C 241.612 199.503,242.782 200.066,243.285 200.224 C 243.788 200.383,244.650 200.857,245.200 201.279 C 246.613 202.362,253.505 206.400,253.940 206.400 C 254.139 206.400,254.542 206.689,254.835 207.042 C 255.128 207.395,256.275 208.111,257.384 208.632 C 258.493 209.154,259.760 209.793,260.200 210.053 C 260.640 210.313,261.198 210.633,261.440 210.763 C 261.682 210.893,262.582 211.466,263.440 212.036 C 264.298 212.605,266.333 213.775,267.962 214.636 C 270.591 216.024,271.029 216.425,271.858 218.200 C 273.794 222.345,272.398 224.068,268.891 221.862 C 265.934 220.002,260.087 216.800,259.648 216.800 C 259.402 216.800,259.199 216.665,259.197 216.500 C 259.195 216.153,257.458 215.095,254.600 213.697 C 253.500 213.160,252.060 212.322,251.400 211.837 C 250.740 211.351,249.480 210.621,248.600 210.214 C 247.720 209.807,246.765 209.143,246.477 208.737 C 246.190 208.332,245.722 208.000,245.437 208.000 C 244.745 208.000,241.445 206.227,239.796 204.970 C 237.755 203.413,236.320 198.822,237.700 198.265 C 238.593 197.905,238.974 197.995,240.685 198.973 M200.800 201.411 C 203.550 203.056,206.790 204.867,208.000 205.436 C 209.210 206.005,210.470 206.706,210.800 206.995 C 211.461 207.573,214.377 209.242,218.438 211.367 C 219.890 212.127,221.600 213.172,222.238 213.691 C 222.877 214.210,223.910 214.956,224.533 215.348 C 226.487 216.579,227.633 220.905,226.156 221.472 C 225.477 221.733,220.753 219.508,219.962 218.554 C 219.709 218.249,219.324 218.000,219.105 218.000 C 218.887 218.000,217.424 217.201,215.854 216.225 C 214.284 215.249,212.505 214.263,211.900 214.035 C 211.295 213.807,210.800 213.455,210.800 213.253 C 210.800 213.052,210.125 212.596,209.300 212.241 C 208.475 211.887,207.440 211.378,207.000 211.112 C 206.560 210.845,205.300 210.075,204.200 209.399 C 203.100 208.724,201.390 207.819,200.400 207.387 C 196.476 205.675,194.313 203.372,194.089 200.667 C 193.832 197.564,194.487 197.636,200.800 201.411 M169.800 200.534 C 167.297 202.075,161.387 205.505,156.400 208.314 C 152.651 210.425,151.620 211.226,150.428 212.959 C 147.836 216.727,149.680 219.253,153.400 217.031 C 154.280 216.505,155.900 215.588,157.000 214.993 C 158.100 214.398,159.284 213.661,159.631 213.355 C 159.979 213.050,160.401 212.800,160.570 212.800 C 160.738 212.800,161.354 212.463,161.938 212.051 C 162.522 211.639,163.990 210.769,165.200 210.117 C 167.647 208.799,171.020 206.904,172.112 206.236 C 173.964 205.102,175.330 200.587,174.171 199.429 C 173.270 198.527,172.917 198.617,169.800 200.534 M289.946 201.800 C 291.260 202.570,292.516 203.200,292.739 203.200 C 292.961 203.200,293.394 203.451,293.702 203.759 C 294.009 204.066,295.250 204.846,296.460 205.491 C 297.670 206.137,299.489 207.235,300.502 207.933 C 301.515 208.630,302.460 209.200,302.602 209.200 C 302.744 209.200,304.149 209.952,305.723 210.872 C 307.298 211.792,308.949 212.741,309.393 212.982 C 313.100 214.991,313.842 215.998,312.266 216.878 C 308.077 219.218,307.649 219.367,306.913 218.749 C 306.521 218.419,305.390 217.806,304.400 217.386 C 303.410 216.966,302.510 216.525,302.400 216.407 C 302.026 216.005,299.003 214.145,298.301 213.885 C 297.917 213.742,296.657 213.022,295.501 212.284 C 294.345 211.546,292.635 210.606,291.700 210.194 C 290.765 209.783,290.000 209.313,290.000 209.150 C 290.000 208.987,289.630 208.736,289.178 208.593 C 287.589 208.089,286.000 205.296,286.000 203.007 C 286.000 199.858,286.415 199.731,289.946 201.800 M337.422 218.824 C 338.442 219.952,338.300 222.507,337.119 224.256 C 336.363 225.376,331.706 228.800,330.939 228.800 C 330.820 228.800,330.246 229.140,329.662 229.556 C 329.078 229.971,327.235 231.043,325.566 231.937 C 323.898 232.831,319.578 235.288,315.966 237.397 C 308.263 241.896,307.768 242.076,306.754 240.757 C 304.640 238.008,306.334 234.880,311.600 231.808 C 313.030 230.973,314.740 229.952,315.400 229.537 C 316.927 228.578,328.880 221.726,331.000 220.595 C 331.880 220.125,333.230 219.350,334.000 218.872 C 335.747 217.788,336.475 217.777,337.422 218.824 M98.012 221.439 C 97.992 222.164,99.140 224.222,99.997 224.997 C 101.102 225.997,101.009 225.114,99.864 223.731 C 99.349 223.109,98.725 222.240,98.476 221.800 C 98.228 221.360,98.019 221.197,98.012 221.439 M238.738 223.147 C 239.322 223.558,240.970 224.496,242.400 225.231 C 243.830 225.967,245.225 226.788,245.501 227.057 C 245.777 227.325,246.857 227.955,247.901 228.456 C 248.945 228.957,250.070 229.572,250.400 229.824 C 250.730 230.075,251.810 230.707,252.800 231.228 C 253.790 231.749,254.880 232.402,255.222 232.679 C 255.565 232.956,256.942 233.772,258.283 234.492 C 268.213 239.819,269.995 241.779,266.294 243.300 C 264.210 244.157,263.446 244.179,262.800 243.400 C 262.526 243.070,261.992 242.800,261.613 242.800 C 261.234 242.800,260.592 242.433,260.187 241.985 C 259.781 241.537,258.676 240.829,257.729 240.410 C 256.783 239.991,255.425 239.103,254.711 238.436 C 253.997 237.768,252.870 237.104,252.206 236.958 C 251.543 236.813,250.100 236.123,249.000 235.424 C 247.900 234.726,246.146 233.744,245.102 233.242 C 244.058 232.741,243.103 232.167,242.979 231.966 C 242.855 231.766,241.819 231.141,240.677 230.578 C 236.985 228.757,235.604 226.995,235.601 224.100 C 235.600 222.121,236.773 221.764,238.738 223.147 M285.976 225.100 C 287.639 225.925,289.061 226.739,289.136 226.908 C 289.211 227.078,289.809 227.494,290.464 227.833 C 292.747 229.014,287.537 232.086,285.030 231.038 C 282.796 230.105,280.816 225.627,282.004 224.196 C 282.654 223.412,282.505 223.378,285.976 225.100 M100.800 226.417 C 100.800 226.646,100.982 227.051,101.204 227.317 C 101.427 227.583,101.987 228.304,102.450 228.921 C 103.851 230.788,103.782 229.784,102.375 227.824 C 101.002 225.913,100.800 225.733,100.800 226.417 M330.683 238.839 C 331.895 240.843,330.275 244.751,327.697 246.047 C 326.989 246.403,326.182 246.871,325.905 247.086 C 325.627 247.302,324.590 247.905,323.600 248.426 C 322.610 248.948,321.530 249.587,321.200 249.847 C 320.870 250.106,319.520 250.899,318.200 251.607 C 315.669 252.966,306.684 258.131,304.868 259.271 C 302.372 260.838,300.530 259.596,300.973 256.644 C 301.412 253.714,303.089 252.152,309.431 248.764 C 311.174 247.833,313.320 246.610,314.200 246.046 C 316.028 244.875,316.559 244.563,319.600 242.885 C 320.810 242.216,323.420 240.752,325.400 239.630 C 329.366 237.383,329.766 237.323,330.683 238.839 M300.319 241.300 C 301.273 244.929,299.619 246.941,292.174 251.203 C 288.911 253.072,285.933 254.780,285.556 255.000 C 285.179 255.220,283.460 256.209,281.735 257.198 C 280.011 258.188,278.301 259.178,277.935 259.398 C 271.403 263.345,270.671 263.594,269.326 262.330 C 267.816 260.912,268.501 257.427,270.657 255.556 C 271.445 254.872,281.786 248.800,282.163 248.800 C 282.285 248.800,283.337 248.215,284.502 247.500 C 285.667 246.785,286.975 245.984,287.410 245.720 C 288.383 245.129,295.501 241.053,296.600 240.458 C 298.333 239.519,299.947 239.884,300.319 241.300 M110.800 241.600 C 111.270 242.260,111.744 242.800,111.854 242.800 C 111.964 242.800,111.670 242.260,111.200 241.600 C 110.730 240.940,110.256 240.400,110.146 240.400 C 110.036 240.400,110.330 240.940,110.800 241.600 M112.000 243.489 C 112.000 243.721,112.371 244.336,112.824 244.856 L 113.647 245.800 112.945 244.600 C 112.020 243.021,112.000 242.997,112.000 243.489 M113.603 246.224 C 113.601 246.456,113.864 246.996,114.187 247.424 C 114.510 247.851,114.780 248.484,114.787 248.830 C 114.801 249.515,116.800 251.602,116.800 250.932 C 116.800 250.707,116.440 250.198,116.000 249.800 C 115.560 249.402,115.199 248.879,115.197 248.638 C 115.196 248.397,114.837 247.660,114.400 247.000 C 113.963 246.340,113.604 245.991,113.603 246.224 M145.420 249.600 C 145.584 249.930,146.044 250.562,146.440 251.005 C 146.837 251.448,147.454 252.528,147.811 253.405 C 149.184 256.777,150.146 258.787,150.310 258.623 C 150.711 258.222,147.802 252.063,146.521 250.600 C 145.751 249.720,145.255 249.270,145.420 249.600 M117.693 254.400 C 117.693 255.170,117.775 255.485,117.876 255.100 C 117.976 254.715,117.976 254.085,117.876 253.700 C 117.775 253.315,117.693 253.630,117.693 254.400 M322.998 257.855 C 324.825 258.556,324.375 262.174,322.206 264.220 C 321.489 264.897,318.404 266.877,315.351 268.622 C 312.298 270.367,309.497 271.976,309.126 272.197 C 305.604 274.300,303.949 275.200,303.606 275.200 C 303.383 275.200,303.200 275.343,303.200 275.518 C 303.200 276.340,297.942 278.534,296.870 278.159 C 293.615 277.020,296.147 271.964,301.400 269.116 C 304.742 267.303,307.767 265.615,308.400 265.209 C 309.451 264.534,316.979 260.173,317.601 259.878 C 317.931 259.722,318.920 259.154,319.800 258.615 C 321.516 257.564,321.963 257.457,322.998 257.855 M294.981 258.936 C 296.138 259.783,295.664 263.272,294.181 264.820 C 293.256 265.785,287.608 269.248,278.119 274.668 C 277.415 275.071,274.732 276.630,272.158 278.133 L 267.478 280.865 266.439 280.093 C 264.323 278.520,265.753 273.586,268.695 272.307 C 269.303 272.043,271.150 270.994,272.800 269.976 C 274.450 268.957,278.140 266.796,281.000 265.172 C 286.476 262.063,287.276 261.607,290.066 260.003 C 292.930 258.356,293.899 258.146,294.981 258.936 M262.720 262.080 C 264.478 263.838,262.276 268.535,258.800 270.441 C 258.030 270.863,257.051 271.431,256.623 271.704 C 253.865 273.465,251.600 274.800,251.371 274.800 C 251.224 274.800,248.921 276.100,246.252 277.688 C 243.583 279.277,240.631 280.994,239.691 281.503 C 238.751 282.013,237.140 282.963,236.112 283.615 C 233.912 285.010,232.870 285.097,231.675 283.984 C 229.220 281.696,231.651 277.813,237.730 274.313 C 239.749 273.151,241.690 272.020,242.043 271.800 C 242.397 271.580,243.837 270.791,245.243 270.046 C 246.650 269.301,248.748 268.086,249.908 267.346 C 251.067 266.606,252.092 266.000,252.186 266.000 C 252.280 266.000,253.402 265.391,254.679 264.647 C 260.137 261.466,261.629 260.989,262.720 262.080 M122.000 266.196 C 122.000 267.545,128.393 275.341,131.178 277.387 C 133.546 279.128,133.382 278.494,130.935 276.448 C 128.104 274.081,124.948 270.470,123.464 267.900 C 122.477 266.191,122.000 265.636,122.000 266.196 M151.650 268.245 C 151.578 271.791,150.917 274.826,149.919 276.200 C 149.293 277.061,149.245 277.239,149.750 276.829 C 151.510 275.400,152.522 271.460,152.019 268.000 L 151.700 265.800 151.650 268.245 M290.092 277.700 C 291.767 280.283,289.874 283.482,285.200 285.963 C 284.210 286.489,283.116 287.162,282.769 287.459 C 282.421 287.757,281.987 288.000,281.804 288.000 C 281.620 288.000,280.561 288.585,279.451 289.300 C 276.850 290.975,276.561 291.143,273.537 292.738 C 272.142 293.474,270.730 294.304,270.400 294.582 C 269.416 295.413,264.565 298.000,263.993 298.000 C 262.229 298.000,261.515 295.534,262.558 293.040 C 263.277 291.318,264.428 290.489,272.400 285.954 C 276.030 283.889,279.360 281.982,279.800 281.716 C 280.240 281.449,280.834 281.112,281.120 280.965 C 281.407 280.819,283.100 279.822,284.884 278.749 C 288.530 276.558,289.256 276.412,290.092 277.700 M317.130 279.167 C 317.387 281.857,316.214 283.438,312.228 285.782 C 302.461 291.524,298.531 293.822,297.800 294.217 C 297.360 294.454,296.154 295.145,295.119 295.751 C 291.401 297.931,288.996 296.358,290.601 292.797 C 291.427 290.965,292.329 290.228,296.991 287.571 C 301.883 284.782,303.017 284.123,304.674 283.107 C 305.513 282.593,306.650 281.952,307.200 281.685 C 307.750 281.417,309.550 280.400,311.200 279.426 C 315.074 277.139,316.929 277.058,317.130 279.167 M133.983 278.980 C 134.697 279.840,137.709 281.204,138.826 281.173 C 139.542 281.154,139.358 281.008,138.136 280.626 C 137.221 280.340,135.933 279.722,135.274 279.253 C 133.891 278.268,133.287 278.140,133.983 278.980 M259.372 279.330 C 261.828 281.126,259.634 285.480,255.000 288.005 C 253.680 288.725,252.150 289.623,251.600 290.003 C 251.050 290.382,249.160 291.462,247.400 292.403 C 245.640 293.345,243.265 294.710,242.122 295.438 C 240.980 296.166,238.820 297.426,237.322 298.237 C 235.825 299.049,234.302 299.970,233.937 300.285 C 232.882 301.195,230.729 300.786,230.036 299.545 C 228.839 297.403,230.752 293.947,234.087 292.226 C 236.077 291.199,242.083 287.731,248.000 284.194 C 249.210 283.471,251.280 282.289,252.600 281.568 C 253.920 280.847,255.540 279.930,256.200 279.530 C 257.628 278.665,258.396 278.616,259.372 279.330 M285.449 296.618 C 286.751 298.606,283.331 304.000,280.767 304.000 C 280.371 304.000,279.948 304.160,279.827 304.356 C 279.706 304.552,278.660 305.202,277.503 305.801 C 276.347 306.400,275.130 307.100,274.800 307.357 C 274.470 307.615,273.390 308.259,272.400 308.789 C 271.410 309.319,269.790 310.247,268.800 310.851 C 260.582 315.865,258.800 316.182,258.800 312.631 C 258.800 310.291,264.757 304.921,267.467 304.818 C 267.723 304.808,267.993 304.657,268.067 304.481 C 268.183 304.202,273.855 300.800,274.203 300.800 C 274.277 300.800,275.825 299.877,277.643 298.749 C 283.188 295.310,284.379 294.985,285.449 296.618 M256.803 297.003 C 258.421 298.954,256.316 302.736,252.400 304.912 C 251.410 305.462,247.504 307.732,243.720 309.956 C 239.936 312.180,236.710 314.000,236.551 314.000 C 236.393 314.000,235.979 314.250,235.631 314.555 C 231.413 318.265,227.738 317.496,228.854 313.139 C 229.481 310.695,230.481 309.893,238.000 305.809 C 239.430 305.033,241.770 303.696,243.200 302.838 C 244.630 301.980,246.925 300.684,248.300 299.958 C 249.675 299.231,250.800 298.514,250.800 298.365 C 250.800 298.215,251.115 297.979,251.500 297.840 C 251.885 297.701,252.650 297.323,253.200 297.000 C 254.496 296.238,256.169 296.240,256.803 297.003 M253.100 313.852 C 254.514 314.231,254.382 317.741,252.889 319.441 C 251.898 320.571,248.094 323.111,245.600 324.310 C 245.050 324.574,242.800 325.857,240.600 327.161 C 229.387 333.807,228.428 334.178,227.532 332.211 C 226.206 329.300,229.774 325.648,237.649 321.860 C 237.952 321.714,238.920 321.144,239.800 320.594 C 240.680 320.044,242.390 319.055,243.600 318.397 C 244.810 317.739,247.150 316.399,248.800 315.420 C 252.163 313.425,251.885 313.526,253.100 313.852 " stroke="none" fill="#d7dfe0" fill-rule="evenodd"></path><path id="path4" d="M190.200 62.062 C 188.556 62.442,187.707 62.628,182.200 63.816 C 180.440 64.196,177.903 65.023,176.561 65.653 C 175.220 66.284,173.859 66.800,173.536 66.800 C 173.213 66.800,171.756 67.520,170.297 68.400 C 168.838 69.280,167.474 70.000,167.267 70.000 C 167.059 70.000,165.974 70.630,164.855 71.400 C 163.735 72.170,162.678 72.800,162.504 72.800 C 162.331 72.800,161.254 73.430,160.110 74.200 C 158.967 74.970,157.886 75.600,157.709 75.600 C 157.531 75.600,156.759 76.025,155.993 76.544 C 155.227 77.064,153.610 78.024,152.400 78.677 C 151.190 79.331,147.770 81.280,144.800 83.008 C 141.830 84.736,138.625 86.566,137.679 87.075 C 136.732 87.584,135.295 88.450,134.486 89.000 C 133.676 89.550,132.853 90.000,132.655 90.000 C 132.457 90.000,131.419 90.630,130.347 91.400 C 129.275 92.170,128.174 92.801,127.899 92.801 C 127.625 92.802,126.320 93.521,125.000 94.400 C 123.680 95.279,122.418 95.998,122.195 95.999 C 121.972 95.999,120.854 96.630,119.710 97.400 C 118.567 98.170,117.486 98.800,117.309 98.800 C 117.131 98.800,116.324 99.250,115.514 99.800 C 114.705 100.350,113.268 101.219,112.321 101.732 C 94.855 111.195,87.505 117.538,80.224 129.435 C 79.001 131.434,78.000 133.222,78.000 133.409 C 78.000 133.595,77.364 134.977,76.587 136.478 C 75.810 137.980,75.018 139.971,74.828 140.904 C 74.637 141.837,73.999 144.130,73.409 146.000 C 71.279 152.761,71.083 171.563,73.096 176.000 C 73.545 176.990,74.144 178.880,74.428 180.200 C 74.711 181.520,75.536 183.542,76.262 184.693 C 76.988 185.844,77.704 187.284,77.854 187.893 C 78.004 188.502,78.728 189.898,79.464 190.995 C 80.199 192.092,80.800 193.195,80.800 193.446 C 80.800 193.697,81.085 194.138,81.433 194.427 C 81.781 194.716,82.576 195.964,83.200 197.200 C 83.824 198.436,84.630 199.693,84.990 199.992 C 85.351 200.291,85.913 201.174,86.239 201.954 C 86.564 202.734,86.973 203.468,87.147 203.586 C 87.722 203.975,92.522 211.534,95.061 216.049 C 95.535 216.891,96.231 217.888,96.608 218.265 C 96.984 218.642,97.635 219.749,98.054 220.727 C 98.473 221.704,99.262 223.034,99.808 223.682 C 100.354 224.331,100.800 225.048,100.800 225.277 C 100.800 225.506,101.430 226.551,102.200 227.600 C 102.970 228.649,103.600 229.702,103.600 229.940 C 103.600 230.178,104.115 230.963,104.745 231.686 C 105.374 232.409,106.212 233.630,106.606 234.400 C 107.000 235.170,108.220 237.150,109.318 238.800 C 111.921 242.712,115.200 248.246,115.200 248.725 C 115.200 248.932,115.466 249.323,115.792 249.593 C 116.782 250.415,117.649 252.481,117.994 254.841 C 118.175 256.074,118.812 258.144,119.410 259.441 C 120.008 260.738,120.645 262.302,120.825 262.915 C 122.046 267.071,129.696 276.408,133.453 278.326 C 134.304 278.760,135.738 279.500,136.639 279.969 C 141.766 282.640,148.428 280.261,150.638 274.970 C 152.164 271.318,151.505 261.613,149.426 257.114 C 148.888 255.951,148.172 254.314,147.835 253.476 C 147.497 252.637,146.811 251.413,146.310 250.756 C 144.783 248.751,141.063 244.212,140.774 244.000 C 140.624 243.890,139.740 243.170,138.811 242.400 C 137.881 241.630,135.923 240.351,134.460 239.559 C 131.259 237.824,128.398 234.263,124.932 227.697 C 124.381 226.654,123.599 225.440,123.195 225.000 C 122.790 224.560,122.341 223.723,122.196 223.140 C 122.052 222.556,121.607 221.729,121.208 221.301 C 120.555 220.600,118.478 217.362,116.269 213.600 C 115.817 212.830,115.044 211.706,114.551 211.102 C 114.058 210.498,113.532 209.598,113.381 209.102 C 113.230 208.606,112.647 207.586,112.084 206.836 C 111.522 206.086,110.845 204.826,110.580 204.036 C 110.315 203.246,109.716 202.422,109.250 202.205 C 108.752 201.974,108.149 201.051,107.790 199.970 C 107.454 198.958,106.663 197.635,106.033 197.031 C 105.402 196.427,104.790 195.449,104.671 194.857 C 104.553 194.265,103.903 193.085,103.228 192.235 C 102.553 191.385,102.000 190.445,102.000 190.146 C 102.000 189.847,101.394 188.927,100.653 188.101 C 99.912 187.276,99.180 186.194,99.025 185.698 C 98.871 185.202,98.305 184.273,97.767 183.634 C 97.229 182.994,96.501 181.780,96.149 180.936 C 95.797 180.091,95.162 178.912,94.738 178.315 C 94.314 177.719,93.708 175.877,93.392 174.223 C 93.075 172.568,92.343 170.090,91.764 168.715 C 90.335 165.319,90.424 153.998,91.899 151.635 C 92.367 150.884,92.970 148.994,93.239 147.435 C 93.511 145.852,94.318 143.440,95.064 141.974 C 95.799 140.530,96.400 139.169,96.400 138.949 C 96.400 138.730,96.729 138.197,97.132 137.765 C 97.535 137.333,98.210 136.450,98.632 135.803 C 100.479 132.973,107.055 126.749,110.040 125.006 C 114.844 122.200,115.994 121.540,117.660 120.636 C 118.682 120.082,120.328 119.081,121.318 118.414 C 122.307 117.746,123.259 117.200,123.434 117.200 C 123.785 117.200,128.239 114.612,131.468 112.532 C 132.605 111.799,133.705 111.200,133.912 111.200 C 134.119 111.200,134.988 110.723,135.844 110.140 C 136.700 109.556,138.300 108.597,139.400 108.007 C 140.500 107.417,142.525 106.274,143.900 105.467 C 150.422 101.640,151.481 101.026,152.600 100.427 C 153.260 100.073,154.904 99.113,156.252 98.292 C 157.601 97.471,158.829 96.800,158.980 96.800 C 159.132 96.800,160.040 96.261,160.998 95.602 C 161.956 94.942,163.158 94.243,163.670 94.047 C 164.181 93.852,165.586 93.041,166.791 92.246 C 167.996 91.451,169.166 90.795,169.391 90.789 C 169.616 90.783,170.507 90.243,171.371 89.589 C 172.235 88.935,173.135 88.399,173.371 88.399 C 173.607 88.398,174.880 87.679,176.200 86.800 C 177.520 85.921,178.830 85.202,179.111 85.201 C 179.393 85.201,180.743 84.634,182.111 83.942 C 186.971 81.487,198.790 80.009,204.200 81.181 C 205.080 81.372,207.155 81.804,208.811 82.140 C 210.467 82.477,212.932 83.303,214.289 83.976 C 215.645 84.649,216.973 85.200,217.240 85.200 C 217.506 85.200,218.281 85.623,218.962 86.141 C 219.643 86.658,220.787 87.384,221.504 87.753 C 225.726 89.928,236.000 101.404,236.000 103.946 C 236.000 104.146,236.568 105.524,237.262 107.007 C 237.956 108.491,238.842 111.166,239.231 112.952 C 239.620 114.739,240.242 117.190,240.614 118.400 C 240.986 119.610,241.460 121.590,241.667 122.800 C 242.033 124.943,243.274 130.044,244.085 132.739 C 244.365 133.671,244.871 134.238,245.752 134.606 C 246.447 134.896,247.328 135.478,247.708 135.899 C 248.089 136.319,249.345 137.098,250.500 137.629 C 251.655 138.161,252.825 138.897,253.100 139.266 C 253.376 139.635,254.106 140.047,254.722 140.183 C 255.339 140.318,256.721 141.053,257.792 141.815 C 258.864 142.577,260.007 143.200,260.333 143.200 C 260.658 143.200,261.514 143.650,262.236 144.200 C 264.189 145.690,265.081 145.528,265.603 143.587 C 266.059 141.896,266.016 141.660,264.045 134.905 C 263.580 133.313,263.200 131.591,263.200 131.078 C 263.200 130.259,262.466 127.306,261.143 122.800 C 260.917 122.030,260.507 120.140,260.232 118.600 C 259.958 117.060,259.180 113.820,258.504 111.400 C 257.829 108.980,257.080 106.146,256.840 105.103 C 256.601 104.059,255.954 102.271,255.402 101.128 C 254.851 99.985,254.400 98.873,254.400 98.655 C 254.400 98.084,251.278 92.080,250.004 90.200 C 249.407 89.320,248.616 88.150,248.246 87.600 C 246.363 84.801,245.297 83.524,242.284 80.460 C 237.679 75.775,232.884 72.130,227.600 69.296 C 226.170 68.529,224.550 67.655,224.000 67.353 C 223.450 67.052,222.809 66.804,222.575 66.802 C 222.341 66.801,221.239 66.361,220.126 65.824 C 218.296 64.941,215.549 64.195,206.943 62.247 C 203.763 61.527,193.026 61.408,190.200 62.062 M209.600 64.232 C 214.542 65.222,218.224 66.228,219.000 66.801 C 219.220 66.963,220.120 67.321,221.000 67.596 C 228.115 69.820,240.274 79.029,245.679 86.289 C 248.902 90.617,253.053 97.842,253.786 100.400 C 253.943 100.950,254.492 102.480,255.004 103.800 C 255.516 105.120,256.223 107.550,256.575 109.200 C 256.927 110.850,257.493 113.190,257.834 114.400 C 258.174 115.610,258.875 118.490,259.391 120.800 C 259.906 123.110,260.684 126.350,261.119 128.000 C 261.554 129.650,262.042 131.810,262.203 132.800 C 262.364 133.790,262.815 135.680,263.205 137.000 C 265.081 143.352,264.335 144.069,259.342 140.714 C 258.430 140.101,257.503 139.600,257.282 139.600 C 257.061 139.600,255.944 138.970,254.800 138.200 C 253.656 137.430,252.603 136.798,252.460 136.795 C 252.317 136.793,250.760 135.922,249.000 134.860 C 245.207 132.571,245.199 132.554,242.578 121.000 C 239.805 108.779,238.257 104.588,234.292 98.579 C 224.447 83.654,204.693 76.090,187.595 80.696 C 183.609 81.770,177.325 84.361,175.869 85.530 C 175.611 85.737,174.410 86.412,173.200 87.031 C 171.990 87.649,170.443 88.570,169.762 89.077 C 169.081 89.585,168.352 90.000,168.141 90.000 C 167.929 90.000,166.866 90.569,165.778 91.265 C 164.690 91.960,162.810 93.054,161.600 93.695 C 160.390 94.336,159.116 95.117,158.769 95.430 C 158.421 95.744,157.971 96.001,157.769 96.002 C 157.566 96.003,156.590 96.548,155.600 97.214 C 154.610 97.879,153.080 98.783,152.200 99.221 C 151.320 99.659,149.430 100.703,148.000 101.540 C 135.001 109.150,119.765 117.937,118.200 118.726 C 117.540 119.059,116.280 119.809,115.400 120.393 C 114.520 120.977,112.990 121.864,112.000 122.364 C 111.010 122.865,109.840 123.595,109.400 123.986 C 108.960 124.378,108.396 124.766,108.147 124.849 C 103.752 126.313,93.105 140.096,92.173 145.528 C 92.034 146.338,91.446 148.440,90.867 150.200 C 89.440 154.532,89.350 167.351,90.717 171.400 C 92.929 177.952,92.792 177.675,99.446 189.009 C 100.741 191.214,102.298 193.734,102.907 194.609 C 105.101 197.765,106.800 200.385,106.800 200.617 C 106.800 201.016,112.548 210.555,115.920 215.753 C 116.936 217.319,118.071 219.150,118.443 219.822 C 118.814 220.495,120.295 222.925,121.734 225.222 C 123.173 227.520,125.036 230.524,125.875 231.897 C 129.366 237.614,130.576 238.995,133.254 240.328 C 146.945 247.138,155.385 269.712,147.135 277.453 C 139.191 284.906,123.779 272.145,119.383 254.475 C 118.821 252.214,118.053 250.220,117.429 249.402 C 116.863 248.661,116.237 247.637,116.037 247.127 C 115.837 246.617,115.026 245.301,114.236 244.201 C 113.446 243.102,112.800 242.039,112.800 241.839 C 112.800 241.639,112.305 240.839,111.700 240.061 C 111.095 239.283,110.330 238.148,110.000 237.539 C 109.670 236.930,108.590 235.148,107.600 233.579 C 104.698 228.979,103.487 227.041,102.000 224.614 C 101.230 223.358,100.287 221.850,99.904 221.265 C 99.522 220.679,99.088 219.930,98.941 219.600 C 98.794 219.270,98.072 218.166,97.337 217.146 C 96.602 216.127,96.000 215.195,96.000 215.074 C 96.000 214.954,94.785 212.939,93.300 210.595 C 91.815 208.252,90.348 205.854,90.041 205.267 C 89.733 204.680,89.002 203.570,88.415 202.800 C 73.037 182.607,69.273 162.922,76.482 140.400 C 76.940 138.970,77.540 137.440,77.816 137.000 C 78.091 136.560,78.442 135.780,78.596 135.266 C 79.207 133.224,83.153 126.869,86.541 122.473 C 89.850 118.180,100.565 109.329,103.937 108.106 C 104.302 107.974,105.320 107.380,106.200 106.786 C 107.080 106.193,108.700 105.232,109.800 104.650 C 111.994 103.490,113.712 102.505,119.292 99.210 C 121.331 98.005,123.540 96.727,124.200 96.370 C 125.398 95.721,128.740 93.820,133.538 91.061 C 134.933 90.258,136.581 89.241,137.199 88.800 C 137.818 88.360,138.480 88.000,138.671 88.000 C 138.862 88.000,139.975 87.370,141.144 86.600 C 142.313 85.830,143.346 85.200,143.438 85.200 C 143.531 85.200,145.360 84.181,147.503 82.936 C 149.647 81.691,152.390 80.100,153.600 79.400 C 154.810 78.701,158.140 76.775,161.000 75.121 C 171.275 69.178,178.946 65.601,182.742 64.983 C 183.544 64.852,185.460 64.469,187.000 64.131 C 194.043 62.584,201.546 62.618,209.600 64.232 " stroke="none" fill="#f6c69a" fill-rule="evenodd"></path></g></svg>